<?xml version="1.0" encoding="windows-1252" standalone="no"?>
<svg xmlns="http://www.w3.org/2000/svg" xmlns:xlink="http://www.w3.org/1999/xlink" contentStyleType="text/css" height="1039px" preserveAspectRatio="none" style="width:754px;height:1039px;background:#FFFFFF;" version="1.1" viewBox="0 0 754 1039" width="754px" zoomAndPan="magnify"><defs/><g><!--entity ?????????--><g id="elem_&#1057;&#1086;&#1090;&#1088;&#1091;&#1076;&#1085;&#1080;&#1082;"><ellipse cx="378.29" cy="14" fill="#F1F1F1" rx="8" ry="8" style="stroke:#181818;stroke-width:0.5;"/><path d="M378.29,22 L378.29,49 M365.29,30 L391.29,30 M378.29,49 L365.29,64 M378.29,49 L391.29,64 " fill="none" style="stroke:#181818;stroke-width:0.5;"/><text fill="#000000" font-family="sans-serif" font-size="14" lengthAdjust="spacing" textLength="80" x="338.29" y="78.4951">&#1057;&#1086;&#1090;&#1088;&#1091;&#1076;&#1085;&#1080;&#1082;</text></g><!--entity ????????????--><g id="elem_&#1056;&#1091;&#1082;&#1086;&#1074;&#1086;&#1076;&#1080;&#1090;&#1077;&#1083;&#1100;"><ellipse cx="113.29" cy="258.01" fill="#F1F1F1" rx="8" ry="8" style="stroke:#181818;stroke-width:0.5;"/><path d="M113.29,266.01 L113.29,293.01 M100.29,274.01 L126.29,274.01 M113.29,293.01 L100.29,308.01 M113.29,293.01 L126.29,308.01 " fill="none" style="stroke:#181818;stroke-width:0.5;"/><text fill="#000000" font-family="sans-serif" font-size="14" lengthAdjust="spacing" textLength="104" x="61.29" y="322.5051">&#1056;&#1091;&#1082;&#1086;&#1074;&#1086;&#1076;&#1080;&#1090;&#1077;&#1083;&#1100;</text></g><!--entity ????? ??????--><g id="elem_&#1054;&#1090;&#1076;&#1077;&#1083; &#1082;&#1072;&#1076;&#1088;&#1086;&#1074;"><ellipse cx="483.29" cy="592.32" fill="#F1F1F1" rx="8" ry="8" style="stroke:#181818;stroke-width:0.5;"/><path d="M483.29,600.32 L483.29,627.32 M470.29,608.32 L496.29,608.32 M483.29,627.32 L470.29,642.32 M483.29,627.32 L496.29,642.32 " fill="none" style="stroke:#181818;stroke-width:0.5;"/><text fill="#000000" font-family="sans-serif" font-size="14" lengthAdjust="spacing" textLength="104" x="431.29" y="656.8151">&#1054;&#1090;&#1076;&#1077;&#1083; &#1082;&#1072;&#1076;&#1088;&#1086;&#1074;</text></g><!--entity ???????????--><g id="elem_&#1041;&#1091;&#1093;&#1075;&#1072;&#1083;&#1090;&#1077;&#1088;&#1080;&#1103;"><ellipse cx="555.29" cy="843.42" fill="#F1F1F1" rx="8" ry="8" style="stroke:#181818;stroke-width:0.5;"/><path d="M555.29,851.42 L555.29,878.42 M542.29,859.42 L568.29,859.42 M555.29,878.42 L542.29,893.42 M555.29,878.42 L568.29,893.42 " fill="none" style="stroke:#181818;stroke-width:0.5;"/><text fill="#000000" font-family="sans-serif" font-size="14" lengthAdjust="spacing" textLength="92" x="509.29" y="907.9151">&#1041;&#1091;&#1093;&#1075;&#1072;&#1083;&#1090;&#1077;&#1088;&#1080;&#1103;</text></g><g id="elem_UC1"><ellipse cx="113.2877" cy="165.6575" fill="#F1F1F1" rx="107.2877" ry="23.8575" style="stroke:#181818;stroke-width:0.5;"/><text fill="#000000" font-family="sans-serif" font-size="14" lengthAdjust="spacing" textLength="180" x="23.2877" y="168.5042">&#1055;&#1086;&#1076;&#1072;&#1090;&#1100; &#1079;&#1072;&#1103;&#1074;&#1082;&#1091; &#1085;&#1072; &#1086;&#1090;&#1087;&#1091;&#1089;&#1082;</text></g><g id="elem_UC2"><ellipse cx="113.2932" cy="405.2686" fill="#F1F1F1" rx="85.2932" ry="19.4586" style="stroke:#181818;stroke-width:0.5;"/><text fill="#000000" font-family="sans-serif" font-size="14" lengthAdjust="spacing" textLength="131" x="47.7932" y="408.1153">&#1055;&#1088;&#1086;&#1074;&#1077;&#1088;&#1080;&#1090;&#1100; &#1079;&#1072;&#1103;&#1074;&#1082;&#1091;</text></g><g id="elem_UC3"><ellipse cx="92.292" cy="504.2724" fill="#F1F1F1" rx="82.712" ry="18.9424" style="stroke:#181818;stroke-width:0.5;"/><text fill="#000000" font-family="sans-serif" font-size="14" lengthAdjust="spacing" textLength="125" x="29.1008" y="507.3515">&#1054;&#1076;&#1086;&#1073;&#1088;&#1080;&#1090;&#1100; &#1079;&#1072;&#1103;&#1074;&#1082;&#1091;</text></g><g id="elem_UC33"><ellipse cx="295.288" cy="504.2656" fill="#F1F1F1" rx="85.728" ry="19.5456" style="stroke:#181818;stroke-width:0.5;"/><text fill="#000000" font-family="sans-serif" font-size="14" lengthAdjust="spacing" textLength="132" x="229.288" y="507.1123">&#1054;&#1090;&#1082;&#1083;&#1086;&#1085;&#1080;&#1090;&#1100; &#1079;&#1072;&#1103;&#1074;&#1082;&#1091;</text></g><g id="elem_UC4"><ellipse cx="499.2938" cy="747.5208" fill="#F1F1F1" rx="125.0038" ry="27.4008" style="stroke:#181818;stroke-width:0.5;"/><text fill="#000000" font-family="sans-serif" font-size="14" lengthAdjust="spacing" textLength="218" x="390.2938" y="750.3674">&#1054;&#1092;&#1086;&#1088;&#1084;&#1080;&#1090;&#1100; &#1087;&#1088;&#1080;&#1082;&#1072;&#1079; &#1086;&#1073; &#1086;&#1090;&#1087;&#1091;&#1089;&#1082;&#1077;</text></g><g id="elem_UC5"><ellipse cx="604.2939" cy="1002.4228" fill="#F1F1F1" rx="144.0139" ry="31.2028" style="stroke:#181818;stroke-width:0.5;"/><text fill="#000000" font-family="sans-serif" font-size="14" lengthAdjust="spacing" textLength="258" x="475.2939" y="1005.2695">&#1053;&#1072;&#1095;&#1080;&#1089;&#1083;&#1080;&#1090;&#1100; &#1080; &#1074;&#1099;&#1087;&#1083;&#1072;&#1090;&#1080;&#1090;&#1100; &#1086;&#1090;&#1087;&#1091;&#1089;&#1082;&#1085;&#1099;&#1077;</text></g><g id="elem_UC6"><ellipse cx="483.2898" cy="287.664" fill="#F1F1F1" rx="157.4698" ry="33.894" style="stroke:#181818;stroke-width:0.5;"/><text fill="#000000" font-family="sans-serif" font-size="14" lengthAdjust="spacing" textLength="286" x="340.2898" y="290.5106">&#1048;&#1085;&#1092;&#1086;&#1088;&#1084;&#1080;&#1088;&#1086;&#1074;&#1072;&#1090;&#1100; &#1086;&#1073; &#1086;&#1082;&#1086;&#1085;&#1095;&#1072;&#1085;&#1080;&#1080; &#1086;&#1090;&#1087;&#1091;&#1089;&#1082;&#1072;</text></g><!--link ????????? to UC1--><g id="link_&#1057;&#1086;&#1090;&#1088;&#1091;&#1076;&#1085;&#1080;&#1082;_UC1"><path d="M338.04,62.88 C289.97,84.65 215.2059,118.5053 164.7359,141.3553 " fill="none" id="&#1057;&#1086;&#1090;&#1088;&#1091;&#1076;&#1085;&#1080;&#1082;-to-UC1" style="stroke:#181818;stroke-width:1.0;"/><polygon fill="#181818" points="159.27,143.83,169.1186,143.762,163.8249,141.7678,165.8191,136.4741,159.27,143.83" style="stroke:#181818;stroke-width:1.0;"/></g><!--link UC1 to ????????????--><g id="link_UC1_&#1056;&#1091;&#1082;&#1086;&#1074;&#1086;&#1076;&#1080;&#1090;&#1077;&#1083;&#1100;"><path d="M113.29,189.79 C113.29,206.69 113.29,223.94 113.29,243.43 " fill="none" id="UC1-to-&#1056;&#1091;&#1082;&#1086;&#1074;&#1086;&#1076;&#1080;&#1090;&#1077;&#1083;&#1100;" style="stroke:#181818;stroke-width:1.0;"/><polygon fill="#181818" points="113.29,249.43,117.29,240.43,113.29,244.43,109.29,240.43,113.29,249.43" style="stroke:#181818;stroke-width:1.0;"/></g><!--link ???????????? to UC2--><g id="link_&#1056;&#1091;&#1082;&#1086;&#1074;&#1086;&#1076;&#1080;&#1090;&#1077;&#1083;&#1100;_UC2"><path d="M113.29,326.2 C113.29,345.98 113.29,363.38 113.29,379.37 " fill="none" id="&#1056;&#1091;&#1082;&#1086;&#1074;&#1086;&#1076;&#1080;&#1090;&#1077;&#1083;&#1100;-to-UC2" style="stroke:#181818;stroke-width:1.0;"/><polygon fill="#181818" points="113.29,385.37,117.29,376.37,113.29,380.37,109.29,376.37,113.29,385.37" style="stroke:#181818;stroke-width:1.0;"/></g><!--link UC2 to UC3--><g id="link_UC2_UC3"><path d="M109.24,424.97 C105.5,442.26 101.2405,461.926 97.5205,479.096 " fill="none" id="UC2-to-UC3" style="stroke:#181818;stroke-width:1.0;"/><polygon fill="#181818" points="96.25,484.96,102.065,477.0111,97.3087,480.0734,94.2464,475.3171,96.25,484.96" style="stroke:#181818;stroke-width:1.0;"/></g><!--link UC2 to UC33--><g id="link_UC2_UC33"><path d="M145.83,423.61 C178.75,441.16 224.0851,465.3179 257.1251,482.9279 " fill="none" id="UC2-to-UC33" style="stroke:#181818;stroke-width:1.0;"/><polygon fill="#181818" points="262.42,485.75,256.3591,477.9869,258.0076,483.3982,252.5963,485.0467,262.42,485.75" style="stroke:#181818;stroke-width:1.0;"/></g><!--link UC33 to ?????????--><g id="link_UC33_&#1057;&#1086;&#1090;&#1088;&#1091;&#1076;&#1085;&#1080;&#1082;"><path d="M294.48,484.28 C293.05,441.77 291.65,335.93 308.29,249.51 C319.87,189.35 342.7798,128.2916 359.5698,87.8416 " fill="none" id="UC33-to-&#1057;&#1086;&#1090;&#1088;&#1091;&#1076;&#1085;&#1080;&#1082;" style="stroke:#181818;stroke-width:1.0;"/><polygon fill="#181818" points="361.87,82.3,354.7253,89.0789,359.9532,86.918,362.1141,92.1458,361.87,82.3" style="stroke:#181818;stroke-width:1.0;"/></g><!--link UC3 to ????? ??????--><g id="link_UC3_&#1054;&#1090;&#1076;&#1077;&#1083; &#1082;&#1072;&#1076;&#1088;&#1086;&#1074;"><path d="M141.41,519.81 C215.46,541.72 349.2866,581.3175 425.1866,603.7775 " fill="none" id="UC3-to-&#1054;&#1090;&#1076;&#1077;&#1083; &#1082;&#1072;&#1076;&#1088;&#1086;&#1074;" style="stroke:#181818;stroke-width:1.0;"/><polygon fill="#181818" points="430.94,605.48,423.4449,599.0906,426.1455,604.0612,421.1749,606.7618,430.94,605.48" style="stroke:#181818;stroke-width:1.0;"/></g><!--link ????? ?????? to UC4--><g id="link_&#1054;&#1090;&#1076;&#1077;&#1083; &#1082;&#1072;&#1076;&#1088;&#1086;&#1074;_UC4"><path d="M488.13,660.37 C490.62,679.55 492.8092,696.5097 495.0592,713.8797 " fill="none" id="&#1054;&#1090;&#1076;&#1077;&#1083; &#1082;&#1072;&#1076;&#1088;&#1086;&#1074;-to-UC4" style="stroke:#181818;stroke-width:1.0;"/><polygon fill="#181818" points="495.83,719.83,498.6407,710.3907,495.1877,714.8714,490.707,711.4184,495.83,719.83" style="stroke:#181818;stroke-width:1.0;"/></g><!--link UC4 to ???????????--><g id="link_UC4_&#1041;&#1091;&#1093;&#1075;&#1072;&#1083;&#1090;&#1077;&#1088;&#1080;&#1103;"><path d="M511.3,775.02 C519.21,792.46 527.1927,810.0853 535.9327,829.3653 " fill="none" id="UC4-to-&#1041;&#1091;&#1093;&#1075;&#1072;&#1083;&#1090;&#1077;&#1088;&#1080;&#1103;" style="stroke:#181818;stroke-width:1.0;"/><polygon fill="#181818" points="538.41,834.83,538.3373,824.9814,536.3456,830.2761,531.051,828.2844,538.41,834.83" style="stroke:#181818;stroke-width:1.0;"/></g><!--link ??????????? to UC5--><g id="link_&#1041;&#1091;&#1093;&#1075;&#1072;&#1083;&#1090;&#1077;&#1088;&#1080;&#1103;_UC5"><path d="M569.72,911.59 C577.01,930.52 583.5744,947.5806 590.4344,965.4006 " fill="none" id="&#1041;&#1091;&#1093;&#1075;&#1072;&#1083;&#1090;&#1077;&#1088;&#1080;&#1103;-to-UC5" style="stroke:#181818;stroke-width:1.0;"/><polygon fill="#181818" points="592.59,971,593.0896,961.1638,590.7937,966.3338,585.6237,964.0379,592.59,971" style="stroke:#181818;stroke-width:1.0;"/></g><!--link UC5 to ?????????--><g id="link_UC5_&#1057;&#1086;&#1090;&#1088;&#1091;&#1076;&#1085;&#1080;&#1082;"><path d="M622.51,971.09 C648.55,924.81 693.29,833 693.29,748.52 C693.29,286.66 693.29,286.66 693.29,286.66 C693.29,149.6 509.1847,81.1538 424.2647,56.6438 " fill="none" id="UC5-to-&#1057;&#1086;&#1090;&#1088;&#1091;&#1076;&#1085;&#1080;&#1082;" style="stroke:#181818;stroke-width:1.0;"/><polygon fill="#181818" points="418.5,54.98,426.0378,61.3189,423.3039,56.3665,428.2563,53.6326,418.5,54.98" style="stroke:#181818;stroke-width:1.0;"/></g><!--link ????????? to UC6--><g id="link_&#1057;&#1086;&#1090;&#1088;&#1091;&#1076;&#1085;&#1080;&#1082;_UC6"><path d="M394.58,82.2 C414.97,129.2 447.182,203.4457 466.592,248.1857 " fill="none" id="&#1057;&#1086;&#1090;&#1088;&#1091;&#1076;&#1085;&#1080;&#1082;-to-UC6" style="stroke:#181818;stroke-width:1.0;"/><polygon fill="#181818" points="468.98,253.69,469.0676,243.8415,466.99,249.1031,461.7285,247.0255,468.98,253.69" style="stroke:#181818;stroke-width:1.0;"/></g><!--link UC6 to ????? ??????--><g id="link_UC6_&#1054;&#1090;&#1076;&#1077;&#1083; &#1082;&#1072;&#1076;&#1088;&#1086;&#1074;"><path d="M483.29,322.05 C483.29,384.42 483.29,512.25 483.29,577.56 " fill="none" id="UC6-to-&#1054;&#1090;&#1076;&#1077;&#1083; &#1082;&#1072;&#1076;&#1088;&#1086;&#1074;" style="stroke:#181818;stroke-width:1.0;"/><polygon fill="#181818" points="483.29,583.56,487.29,574.56,483.29,578.56,479.29,574.56,483.29,583.56" style="stroke:#181818;stroke-width:1.0;"/></g><!--SRC=[VP8zJiD048LxdsBbFWN-Asau0mUmejH867ed1b4GAQAZ8S0DJ70KoyRn5MPlnDlTiLYJh0jBctdplZUPtNH-TtChw9EESYLpML157TNKUAaHFb1gw4WxV1NLSaLxQkMQPP-sg5Ig9j1MKYLprUmFzXTPo4VwXj8gAzHQRZplFblCqsm1_xlcbWXV2phWi45K8mk1CKgXfg8UZ2KrlaWpSNrrOPjD6dF_8zWGM8OjiexqDTKUskr8RwY5fPimZ1qFc3cddw6_LrbwDGUXeaT_YVRCY2p46nAUO5yYc26re9ryfXuLR6gesg0EyW2BBTWhbB-9pBPusMOOVRaT0ajzx_KOMp8oyRpJ9o9ciqjz8VZqsVbON08J0X02FeVsMVq8GyC-VQ7GjEH-X4w50o8m8eC__r3FbzaTmnsxXdEkAu4hcPxx5m00]--></g></svg>