<svg xmlns="http://www.w3.org/2000/svg" xmlns:xlink="http://www.w3.org/1999/xlink" contentStyleType="text/css" height="301px" preserveAspectRatio="none" style="width:671px;height:301px;background:#FFFFFF;" version="1.1" viewBox="0 0 671 301" width="671px" zoomAndPan="magnify"><defs/><g><!--class Firms--><g id="elem_Firms"><rect codeLine="5" fill="#F1F1F1" height="96.8906" id="Firms" rx="2.5" ry="2.5" style="stroke:#181818;stroke-width:0.5;" width="188.5928" x="14.69" y="197.19"/><ellipse cx="85.4214" cy="213.19" fill="#FFAAAA" rx="11" ry="11" style="stroke:#181818;stroke-width:1.0;"/><path d="M86.2652,219.94 L83.8121,219.94 L83.8121,209.69 L80.6714,209.69 L80.6714,207.5494 L89.4058,207.5494 L89.4058,209.69 L86.2652,209.69 L86.2652,219.94 Z " fill="#000000"/><text fill="#000000" font-family="sans-serif" font-size="14" lengthAdjust="spacing" textLength="38.6299" x="105.9214" y="218.0367">Firms</text><line style="stroke:#181818;stroke-width:0.5;" x1="15.69" x2="202.2828" y1="229.19" y2="229.19"/><text fill="#000000" font-family="sans-serif" font-size="14" lengthAdjust="spacing" text-decoration="underline" textLength="14.9092" x="20.69" y="246.1851">ID</text><text fill="#000000" font-family="sans-serif" font-size="14" lengthAdjust="spacing" textLength="23.1533" x="40.0494" y="246.1851">INT</text><line style="stroke:#181818;stroke-width:0.5;" x1="15.69" x2="202.2828" y1="253.4869" y2="253.4869"/><text fill="#000000" font-family="sans-serif" font-size="14" lengthAdjust="spacing" textLength="176.5928" x="20.69" y="270.482">firm_name VARCHAR(50)</text><text fill="#000000" font-family="sans-serif" font-size="14" lengthAdjust="spacing" textLength="160.1934" x="20.69" y="286.7789">discount DECIMAL(5,2)</text></g><!--class Models--><g id="elem_Models"><rect codeLine="11" fill="#F1F1F1" height="113.1875" id="Models" rx="2.5" ry="2.5" style="stroke:#181818;stroke-width:0.5;" width="203.9736" x="7" y="7"/><ellipse cx="80.0728" cy="23" fill="#FFAAAA" rx="11" ry="11" style="stroke:#181818;stroke-width:1.0;"/><path d="M80.9165,29.75 L78.4634,29.75 L78.4634,19.5 L75.3228,19.5 L75.3228,17.3594 L84.0571,17.3594 L84.0571,19.5 L80.9165,19.5 L80.9165,29.75 Z " fill="#000000"/><text fill="#000000" font-family="sans-serif" font-size="14" lengthAdjust="spacing" textLength="49.3281" x="100.5728" y="27.8467">Models</text><line style="stroke:#181818;stroke-width:0.5;" x1="8" x2="209.9736" y1="39" y2="39"/><text fill="#000000" font-family="sans-serif" font-size="14" lengthAdjust="spacing" text-decoration="underline" textLength="14.9092" x="13" y="55.9951">ID</text><text fill="#000000" font-family="sans-serif" font-size="14" lengthAdjust="spacing" textLength="23.1533" x="32.3594" y="55.9951">INT</text><text fill="#000000" font-family="sans-serif" font-size="14" font-style="italic" lengthAdjust="spacing" textLength="47.9883" x="13" y="72.292">firm_id</text><text fill="#000000" font-family="sans-serif" font-size="14" lengthAdjust="spacing" textLength="23.1533" x="65.4385" y="72.292">INT</text><line style="stroke:#181818;stroke-width:0.5;" x1="8" x2="209.9736" y1="79.5938" y2="79.5938"/><text fill="#000000" font-family="sans-serif" font-size="14" lengthAdjust="spacing" textLength="191.9736" x="13" y="96.5889">model_name VARCHAR(50)</text><text fill="#000000" font-family="sans-serif" font-size="14" lengthAdjust="spacing" textLength="144.375" x="13" y="112.8857">price DECIMAL(10,2)</text></g><!--class Dealers--><g id="elem_Dealers"><rect codeLine="18" fill="#F1F1F1" height="80.5938" id="Dealers" rx="2.5" ry="2.5" style="stroke:#181818;stroke-width:0.5;" width="213.626" x="238.17" y="205.34"/><ellipse cx="313.9703" cy="221.34" fill="#FFAAAA" rx="11" ry="11" style="stroke:#181818;stroke-width:1.0;"/><path d="M314.814,228.09 L312.3609,228.09 L312.3609,217.84 L309.2203,217.84 L309.2203,215.6994 L317.9547,215.6994 L317.9547,217.84 L314.814,217.84 L314.814,228.09 Z " fill="#000000"/><text fill="#000000" font-family="sans-serif" font-size="14" lengthAdjust="spacing" textLength="53.5254" x="334.4703" y="226.1867">Dealers</text><line style="stroke:#181818;stroke-width:0.5;" x1="239.17" x2="450.796" y1="237.34" y2="237.34"/><text fill="#000000" font-family="sans-serif" font-size="14" lengthAdjust="spacing" text-decoration="underline" textLength="14.9092" x="244.17" y="254.3351">ID</text><text fill="#000000" font-family="sans-serif" font-size="14" lengthAdjust="spacing" textLength="23.1533" x="263.5294" y="254.3351">INT</text><line style="stroke:#181818;stroke-width:0.5;" x1="239.17" x2="450.796" y1="261.6369" y2="261.6369"/><text fill="#000000" font-family="sans-serif" font-size="14" lengthAdjust="spacing" textLength="201.626" x="244.17" y="278.632">dealer_name VARCHAR(100)</text></g><!--class Addresses--><g id="elem_Addresses"><rect codeLine="23" fill="#F1F1F1" height="80.5938" id="Addresses" rx="2.5" ry="2.5" style="stroke:#181818;stroke-width:0.5;" width="177.8945" x="487.04" y="205.34"/><ellipse cx="535.6298" cy="221.34" fill="#FFAAAA" rx="11" ry="11" style="stroke:#181818;stroke-width:1.0;"/><path d="M536.4736,228.09 L534.0205,228.09 L534.0205,217.84 L530.8798,217.84 L530.8798,215.6994 L539.6142,215.6994 L539.6142,217.84 L536.4736,217.84 L536.4736,228.09 Z " fill="#000000"/><text fill="#000000" font-family="sans-serif" font-size="14" lengthAdjust="spacing" textLength="72.2148" x="556.1298" y="226.1867">Addresses</text><line style="stroke:#181818;stroke-width:0.5;" x1="488.04" x2="663.9345" y1="237.34" y2="237.34"/><text fill="#000000" font-family="sans-serif" font-size="14" lengthAdjust="spacing" text-decoration="underline" textLength="14.9092" x="493.04" y="254.3351">ID</text><text fill="#000000" font-family="sans-serif" font-size="14" lengthAdjust="spacing" textLength="23.1533" x="512.3994" y="254.3351">INT</text><line style="stroke:#181818;stroke-width:0.5;" x1="488.04" x2="663.9345" y1="261.6369" y2="261.6369"/><text fill="#000000" font-family="sans-serif" font-size="14" lengthAdjust="spacing" textLength="165.8945" x="493.04" y="278.632">address VARCHAR(300)</text></g><!--class DealerAddresses--><g id="elem_DealerAddresses"><rect codeLine="28" fill="#F1F1F1" height="96.8906" id="DealerAddresses" rx="2.5" ry="2.5" style="stroke:#181818;stroke-width:0.5;" width="150.4463" x="448.76" y="15.15"/><ellipse cx="463.76" cy="31.15" fill="#FFAAAA" rx="11" ry="11" style="stroke:#181818;stroke-width:1.0;"/><path d="M464.6038,37.9 L462.1506,37.9 L462.1506,27.65 L459.01,27.65 L459.01,25.5094 L467.7444,25.5094 L467.7444,27.65 L464.6038,27.65 L464.6038,37.9 Z " fill="#000000"/><text fill="#000000" font-family="sans-serif" font-size="14" lengthAdjust="spacing" textLength="118.4463" x="477.76" y="35.9967">DealerAddresses</text><line style="stroke:#181818;stroke-width:0.5;" x1="449.76" x2="598.2063" y1="47.15" y2="47.15"/><text fill="#000000" font-family="sans-serif" font-size="14" lengthAdjust="spacing" text-decoration="underline" textLength="14.9092" x="454.76" y="64.1451">ID</text><text fill="#000000" font-family="sans-serif" font-size="14" lengthAdjust="spacing" textLength="23.1533" x="474.1194" y="64.1451">INT</text><text fill="#000000" font-family="sans-serif" font-size="14" font-style="italic" lengthAdjust="spacing" textLength="64.1143" x="454.76" y="80.442">dealer_id</text><text fill="#000000" font-family="sans-serif" font-size="14" lengthAdjust="spacing" textLength="23.1533" x="523.3245" y="80.442">INT</text><text fill="#000000" font-family="sans-serif" font-size="14" font-style="italic" lengthAdjust="spacing" textLength="75.0859" x="454.76" y="96.7389">address_id</text><text fill="#000000" font-family="sans-serif" font-size="14" lengthAdjust="spacing" textLength="23.1533" x="534.2961" y="96.7389">INT</text><line style="stroke:#181818;stroke-width:0.5;" x1="449.76" x2="598.2063" y1="104.0406" y2="104.0406"/></g><!--class DealerFirms--><g id="elem_DealerFirms"><rect codeLine="34" fill="#F1F1F1" height="96.8906" id="DealerFirms" rx="2.5" ry="2.5" style="stroke:#181818;stroke-width:0.5;" width="116.8613" x="256.56" y="15.15"/><ellipse cx="271.56" cy="31.15" fill="#FFAAAA" rx="11" ry="11" style="stroke:#181818;stroke-width:1.0;"/><path d="M272.4038,37.9 L269.9506,37.9 L269.9506,27.65 L266.81,27.65 L266.81,25.5094 L275.5444,25.5094 L275.5444,27.65 L272.4038,27.65 L272.4038,37.9 Z " fill="#000000"/><text fill="#000000" font-family="sans-serif" font-size="14" lengthAdjust="spacing" textLength="84.8613" x="285.56" y="35.9967">DealerFirms</text><line style="stroke:#181818;stroke-width:0.5;" x1="257.56" x2="372.4213" y1="47.15" y2="47.15"/><text fill="#000000" font-family="sans-serif" font-size="14" lengthAdjust="spacing" text-decoration="underline" textLength="14.9092" x="262.56" y="64.1451">ID</text><text fill="#000000" font-family="sans-serif" font-size="14" lengthAdjust="spacing" textLength="23.1533" x="281.9194" y="64.1451">INT</text><text fill="#000000" font-family="sans-serif" font-size="14" font-style="italic" lengthAdjust="spacing" textLength="64.1143" x="262.56" y="80.442">dealer_id</text><text fill="#000000" font-family="sans-serif" font-size="14" lengthAdjust="spacing" textLength="23.1533" x="331.1245" y="80.442">INT</text><text fill="#000000" font-family="sans-serif" font-size="14" font-style="italic" lengthAdjust="spacing" textLength="47.9883" x="262.56" y="96.7389">firm_id</text><text fill="#000000" font-family="sans-serif" font-size="14" lengthAdjust="spacing" textLength="23.1533" x="314.9985" y="96.7389">INT</text><line style="stroke:#181818;stroke-width:0.5;" x1="257.56" x2="372.4213" y1="104.0406" y2="104.0406"/></g><!--link Models to Firms--><g id="link_Models_Firms"><path codeLine="40" d="M108.99,120.57 C108.99,145.04 108.99,173.44 108.99,196.88 " fill="none" id="Models-Firms" style="stroke:#181818;stroke-width:1.0;"/><text fill="#000000" font-family="sans-serif" font-size="13" lengthAdjust="spacing" textLength="44.5605" x="109.99" y="163.2569">firm_id</text><text fill="#000000" font-family="sans-serif" font-size="13" lengthAdjust="spacing" textLength="23.0356" x="84.6627" y="140.0996">0..*</text><text fill="#000000" font-family="sans-serif" font-size="13" lengthAdjust="spacing" textLength="8.271" x="100.4471" y="186.0453">1</text></g><!--link DealerAddresses to Dealers--><g id="link_DealerAddresses_Dealers"><path codeLine="41" d="M476.49,112.37 C447.8,141.23 411.66,177.57 384.53,204.86 " fill="none" id="DealerAddresses-Dealers" style="stroke:#181818;stroke-width:1.0;"/><text fill="#000000" font-family="sans-serif" font-size="13" lengthAdjust="spacing" textLength="59.5347" x="435.99" y="163.2569">dealer_id</text><text fill="#000000" font-family="sans-serif" font-size="13" lengthAdjust="spacing" textLength="23.0356" x="445.5652" y="132.0077">0..*</text><text fill="#000000" font-family="sans-serif" font-size="13" lengthAdjust="spacing" textLength="8.271" x="382.2169" y="194.2434">1</text></g><!--link DealerAddresses to Addresses--><g id="link_DealerAddresses_Addresses"><path codeLine="42" d="M537.79,112.37 C546.12,141.23 556.62,177.57 564.5,204.86 " fill="none" id="DealerAddresses-Addresses" style="stroke:#181818;stroke-width:1.0;"/><text fill="#000000" font-family="sans-serif" font-size="13" lengthAdjust="spacing" textLength="69.7227" x="554.99" y="163.2569">address_id</text><text fill="#000000" font-family="sans-serif" font-size="13" lengthAdjust="spacing" textLength="23.0356" x="515.1024" y="132.0077">0..*</text><text fill="#000000" font-family="sans-serif" font-size="13" lengthAdjust="spacing" textLength="8.271" x="554.0533" y="194.2434">1</text></g><!--link DealerFirms to Dealers--><g id="link_DealerFirms_Dealers"><path codeLine="43" d="M322.95,112.37 C327.76,141.23 333.81,177.57 338.36,204.86 " fill="none" id="DealerFirms-Dealers" style="stroke:#181818;stroke-width:1.0;"/><text fill="#000000" font-family="sans-serif" font-size="13" lengthAdjust="spacing" textLength="59.5347" x="332.99" y="163.2569">dealer_id</text><text fill="#000000" font-family="sans-serif" font-size="13" lengthAdjust="spacing" textLength="23.0356" x="299.4766" y="132.0077">0..*</text><text fill="#000000" font-family="sans-serif" font-size="13" lengthAdjust="spacing" textLength="8.271" x="328.6886" y="194.2434">1</text></g><!--link DealerFirms to Firms--><g id="link_DealerFirms_Firms"><path codeLine="44" d="M260.32,112.37 C230.41,138.52 193.45,170.82 163.55,196.95 " fill="none" id="DealerFirms-Firms" style="stroke:#181818;stroke-width:1.0;"/><text fill="#000000" font-family="sans-serif" font-size="13" lengthAdjust="spacing" textLength="44.5605" x="212.99" y="163.2569">firm_id</text><text fill="#000000" font-family="sans-serif" font-size="13" lengthAdjust="spacing" textLength="23.0356" x="228.4307" y="132.0077">0..*</text><text fill="#000000" font-family="sans-serif" font-size="13" lengthAdjust="spacing" textLength="8.271" x="162.6796" y="186.1252">1</text></g><!--SRC=[hL9TQy8m57tFhxXcBysehcxu8gLGx6J2t8E8hv8rrn7MZz5CKCR- -vgqjcaHki7oqjjxJiuvkSb8u45c25l-cg2JyHHTWIfc42TSAT0Du0geRbBmVN2sxiro6PQBGH2GKRt_ev0fByxxTpmx9mR-CJZvTySMF-G5ohUimQN6PK18PRoKHQfSeEPB6NmHA9SjkeeOh5wsfdyeMNiJRHTk5a_Xnfbvp212gZW_PfyGFIvMw_3PcRdtZ7nVRDQvm4JxLCMmaPNQc4hHWgdMk1wZr8knoJ3rEY4Yv0aMEaLT3SOGXjUrcdgUfHaAKQ1Ig5MRUb2NLyn6yw6ZMQMpbNkTFuslFeCzG1kkepHuByNbVLX__-dUkTlIkdeUGBt9v9R2U0nqIi6umXngCkbDeyUkxxRaDzu3Ezh-7Dfn4El8lxQunkx5_m40]--></g></svg>