<?xml version="1.0" encoding="windows-1252" standalone="no"?>
<svg xmlns="http://www.w3.org/2000/svg" xmlns:xlink="http://www.w3.org/1999/xlink" contentStyleType="text/css" height="621px" preserveAspectRatio="none" style="width:1132px;height:621px;background:#FFFFFF;" version="1.1" viewBox="0 0 1132 621" width="1132px" zoomAndPan="magnify"><defs/><g><text fill="#000000" font-family="sans-serif" font-size="14" font-weight="bold" lengthAdjust="spacing" textLength="249" x="442.5" y="27.9951">&#1055;&#1088;&#1086;&#1094;&#1077;&#1089;&#1089; &#1086;&#1092;&#1086;&#1088;&#1084;&#1083;&#1077;&#1085;&#1080;&#1103; &#1086;&#1090;&#1087;&#1091;&#1089;&#1082;&#1072;</text><rect fill="none" height="317" style="stroke:#000000;stroke-width:1.5;" width="1115" x="10" y="206.8594"/><line style="stroke:#181818;stroke-width:0.5;stroke-dasharray:5.0,5.0;" x1="63" x2="63" y1="118.5938" y2="540.8594"/><line style="stroke:#181818;stroke-width:0.5;stroke-dasharray:5.0,5.0;" x1="260" x2="260" y1="118.5938" y2="540.8594"/><line style="stroke:#181818;stroke-width:0.5;stroke-dasharray:5.0,5.0;" x1="601.5" x2="601.5" y1="118.5938" y2="540.8594"/><line style="stroke:#181818;stroke-width:0.5;stroke-dasharray:5.0,5.0;" x1="848" x2="848" y1="118.5938" y2="540.8594"/><text fill="#000000" font-family="sans-serif" font-size="14" lengthAdjust="spacing" textLength="80" x="20" y="115.292">&#1057;&#1086;&#1090;&#1088;&#1091;&#1076;&#1085;&#1080;&#1082;</text><ellipse cx="63" cy="50.7969" fill="#E2E2F0" rx="8" ry="8" style="stroke:#181818;stroke-width:0.5;"/><path d="M63,58.7969 L63,85.7969 M50,66.7969 L76,66.7969 M63,85.7969 L50,100.7969 M63,85.7969 L76,100.7969 " fill="none" style="stroke:#181818;stroke-width:0.5;"/><text fill="#000000" font-family="sans-serif" font-size="14" lengthAdjust="spacing" textLength="80" x="20" y="552.8545">&#1057;&#1086;&#1090;&#1088;&#1091;&#1076;&#1085;&#1080;&#1082;</text><ellipse cx="63" cy="564.6563" fill="#E2E2F0" rx="8" ry="8" style="stroke:#181818;stroke-width:0.5;"/><path d="M63,572.6563 L63,599.6563 M50,580.6563 L76,580.6563 M63,599.6563 L50,614.6563 M63,599.6563 L76,614.6563 " fill="none" style="stroke:#181818;stroke-width:0.5;"/><text fill="#000000" font-family="sans-serif" font-size="14" lengthAdjust="spacing" textLength="104" x="205" y="115.292">&#1056;&#1091;&#1082;&#1086;&#1074;&#1086;&#1076;&#1080;&#1090;&#1077;&#1083;&#1100;</text><ellipse cx="260" cy="50.7969" fill="#E2E2F0" rx="8" ry="8" style="stroke:#181818;stroke-width:0.5;"/><path d="M260,58.7969 L260,85.7969 M247,66.7969 L273,66.7969 M260,85.7969 L247,100.7969 M260,85.7969 L273,100.7969 " fill="none" style="stroke:#181818;stroke-width:0.5;"/><text fill="#000000" font-family="sans-serif" font-size="14" lengthAdjust="spacing" textLength="104" x="205" y="552.8545">&#1056;&#1091;&#1082;&#1086;&#1074;&#1086;&#1076;&#1080;&#1090;&#1077;&#1083;&#1100;</text><ellipse cx="260" cy="564.6563" fill="#E2E2F0" rx="8" ry="8" style="stroke:#181818;stroke-width:0.5;"/><path d="M260,572.6563 L260,599.6563 M247,580.6563 L273,580.6563 M260,599.6563 L247,614.6563 M260,599.6563 L273,614.6563 " fill="none" style="stroke:#181818;stroke-width:0.5;"/><text fill="#000000" font-family="sans-serif" font-size="14" lengthAdjust="spacing" textLength="107" x="545.5" y="115.292">&#1054;&#1090;&#1076;&#1077;&#1083;_&#1082;&#1072;&#1076;&#1088;&#1086;&#1074;</text><ellipse cx="602" cy="50.7969" fill="#E2E2F0" rx="8" ry="8" style="stroke:#181818;stroke-width:0.5;"/><path d="M602,58.7969 L602,85.7969 M589,66.7969 L615,66.7969 M602,85.7969 L589,100.7969 M602,85.7969 L615,100.7969 " fill="none" style="stroke:#181818;stroke-width:0.5;"/><text fill="#000000" font-family="sans-serif" font-size="14" lengthAdjust="spacing" textLength="107" x="545.5" y="552.8545">&#1054;&#1090;&#1076;&#1077;&#1083;_&#1082;&#1072;&#1076;&#1088;&#1086;&#1074;</text><ellipse cx="602" cy="564.6563" fill="#E2E2F0" rx="8" ry="8" style="stroke:#181818;stroke-width:0.5;"/><path d="M602,572.6563 L602,599.6563 M589,580.6563 L615,580.6563 M602,599.6563 L589,614.6563 M602,599.6563 L615,614.6563 " fill="none" style="stroke:#181818;stroke-width:0.5;"/><text fill="#000000" font-family="sans-serif" font-size="14" lengthAdjust="spacing" textLength="92" x="799" y="115.292">&#1041;&#1091;&#1093;&#1075;&#1072;&#1083;&#1090;&#1077;&#1088;&#1080;&#1103;</text><ellipse cx="848" cy="50.7969" fill="#E2E2F0" rx="8" ry="8" style="stroke:#181818;stroke-width:0.5;"/><path d="M848,58.7969 L848,85.7969 M835,66.7969 L861,66.7969 M848,85.7969 L835,100.7969 M848,85.7969 L861,100.7969 " fill="none" style="stroke:#181818;stroke-width:0.5;"/><text fill="#000000" font-family="sans-serif" font-size="14" lengthAdjust="spacing" textLength="92" x="799" y="552.8545">&#1041;&#1091;&#1093;&#1075;&#1072;&#1083;&#1090;&#1077;&#1088;&#1080;&#1103;</text><ellipse cx="848" cy="564.6563" fill="#E2E2F0" rx="8" ry="8" style="stroke:#181818;stroke-width:0.5;"/><path d="M848,572.6563 L848,599.6563 M835,580.6563 L861,580.6563 M848,599.6563 L835,614.6563 M848,599.6563 L861,614.6563 " fill="none" style="stroke:#181818;stroke-width:0.5;"/><polygon fill="#181818" points="248,145.7266,258,149.7266,248,153.7266,252,149.7266" style="stroke:#181818;stroke-width:1.0;"/><line style="stroke:#181818;stroke-width:1.0;" x1="63" x2="254" y1="149.7266" y2="149.7266"/><text fill="#000000" font-family="sans-serif" font-size="13" lengthAdjust="spacing" textLength="173" x="70" y="144.6606">&#1055;&#1086;&#1076;&#1072;&#1077;&#1090; &#1079;&#1072;&#1103;&#1074;&#1082;&#1091; &#1085;&#1072; &#1086;&#1090;&#1087;&#1091;&#1089;&#1082;</text><line style="stroke:#181818;stroke-width:1.0;" x1="260" x2="302" y1="178.8594" y2="178.8594"/><line style="stroke:#181818;stroke-width:1.0;" x1="302" x2="302" y1="178.8594" y2="191.8594"/><line style="stroke:#181818;stroke-width:1.0;" x1="261" x2="302" y1="191.8594" y2="191.8594"/><polygon fill="#181818" points="271,187.8594,261,191.8594,271,195.8594,267,191.8594" style="stroke:#181818;stroke-width:1.0;"/><text fill="#000000" font-family="sans-serif" font-size="13" lengthAdjust="spacing" textLength="328" x="267" y="173.7935">&#1055;&#1088;&#1086;&#1074;&#1077;&#1088;&#1103;&#1077;&#1090; &#1075;&#1088;&#1072;&#1092;&#1080;&#1082; &#1086;&#1090;&#1087;&#1091;&#1089;&#1082;&#1086;&#1074; &#1080; &#1074;&#1072;&#1078;&#1085;&#1099;&#1077; &#1087;&#1088;&#1086;&#1077;&#1082;&#1090;&#1099;</text><path d="M10,206.8594 L74,206.8594 L74,213.9922 L64,223.9922 L10,223.9922 L10,206.8594 " fill="#EEEEEE" style="stroke:#000000;stroke-width:1.5;"/><rect fill="none" height="317" style="stroke:#000000;stroke-width:1.5;" width="1115" x="10" y="206.8594"/><text fill="#000000" font-family="sans-serif" font-size="13" font-weight="bold" lengthAdjust="spacing" textLength="19" x="25" y="219.9263">alt</text><text fill="#000000" font-family="sans-serif" font-size="11" font-weight="bold" lengthAdjust="spacing" textLength="124" x="89" y="219.0698">[&#1047;&#1072;&#1103;&#1074;&#1082;&#1072; &#1086;&#1076;&#1086;&#1073;&#1088;&#1077;&#1085;&#1072;]</text><polygon fill="#181818" points="590,241.125,600,245.125,590,249.125,594,245.125" style="stroke:#181818;stroke-width:1.0;"/><line style="stroke:#181818;stroke-width:1.0;" x1="260" x2="596" y1="245.125" y2="245.125"/><text fill="#000000" font-family="sans-serif" font-size="13" lengthAdjust="spacing" textLength="118" x="267" y="240.0591">&#1055;&#1077;&#1088;&#1077;&#1076;&#1072;&#1077;&#1090; &#1079;&#1072;&#1103;&#1074;&#1082;&#1091;</text><line style="stroke:#181818;stroke-width:1.0;" x1="602" x2="644" y1="274.2578" y2="274.2578"/><line style="stroke:#181818;stroke-width:1.0;" x1="644" x2="644" y1="274.2578" y2="287.2578"/><line style="stroke:#181818;stroke-width:1.0;" x1="603" x2="644" y1="287.2578" y2="287.2578"/><polygon fill="#181818" points="613,283.2578,603,287.2578,613,291.2578,609,287.2578" style="stroke:#181818;stroke-width:1.0;"/><text fill="#000000" font-family="sans-serif" font-size="13" lengthAdjust="spacing" textLength="232" x="609" y="269.1919">&#1055;&#1088;&#1086;&#1074;&#1077;&#1088;&#1103;&#1077;&#1090; &#1086;&#1089;&#1090;&#1072;&#1090;&#1086;&#1082; &#1076;&#1085;&#1077;&#1081; &#1086;&#1090;&#1087;&#1091;&#1089;&#1082;&#1072;</text><line style="stroke:#181818;stroke-width:1.0;" x1="602" x2="644" y1="316.3906" y2="316.3906"/><line style="stroke:#181818;stroke-width:1.0;" x1="644" x2="644" y1="316.3906" y2="329.3906"/><line style="stroke:#181818;stroke-width:1.0;" x1="603" x2="644" y1="329.3906" y2="329.3906"/><polygon fill="#181818" points="613,325.3906,603,329.3906,613,333.3906,609,329.3906" style="stroke:#181818;stroke-width:1.0;"/><text fill="#000000" font-family="sans-serif" font-size="13" lengthAdjust="spacing" textLength="209" x="609" y="311.3247">&#1054;&#1092;&#1086;&#1088;&#1084;&#1083;&#1103;&#1077;&#1090; &#1087;&#1088;&#1080;&#1082;&#1072;&#1079; &#1086;&#1073; &#1086;&#1090;&#1087;&#1091;&#1089;&#1082;&#1077;</text><polygon fill="#181818" points="836,354.5234,846,358.5234,836,362.5234,840,358.5234" style="stroke:#181818;stroke-width:1.0;"/><line style="stroke:#181818;stroke-width:1.0;" x1="602" x2="842" y1="358.5234" y2="358.5234"/><text fill="#000000" font-family="sans-serif" font-size="13" lengthAdjust="spacing" textLength="119" x="609" y="353.4575">&#1055;&#1077;&#1088;&#1077;&#1076;&#1072;&#1077;&#1090; &#1087;&#1088;&#1080;&#1082;&#1072;&#1079;</text><line style="stroke:#181818;stroke-width:1.0;" x1="848" x2="890" y1="387.6563" y2="387.6563"/><line style="stroke:#181818;stroke-width:1.0;" x1="890" x2="890" y1="387.6563" y2="400.6563"/><line style="stroke:#181818;stroke-width:1.0;" x1="849" x2="890" y1="400.6563" y2="400.6563"/><polygon fill="#181818" points="859,396.6563,849,400.6563,859,404.6563,855,400.6563" style="stroke:#181818;stroke-width:1.0;"/><text fill="#000000" font-family="sans-serif" font-size="13" lengthAdjust="spacing" textLength="258" x="855" y="382.5903">&#1053;&#1072;&#1095;&#1080;&#1089;&#1083;&#1103;&#1077;&#1090; &#1080; &#1074;&#1099;&#1087;&#1083;&#1072;&#1095;&#1080;&#1074;&#1072;&#1077;&#1090; &#1086;&#1090;&#1087;&#1091;&#1089;&#1082;&#1085;&#1099;&#1077;</text><line style="stroke:#181818;stroke-width:1.0;" x1="63" x2="105" y1="429.7891" y2="429.7891"/><line style="stroke:#181818;stroke-width:1.0;" x1="105" x2="105" y1="429.7891" y2="442.7891"/><line style="stroke:#181818;stroke-width:1.0;" x1="64" x2="105" y1="442.7891" y2="442.7891"/><polygon fill="#181818" points="74,438.7891,64,442.7891,74,446.7891,70,442.7891" style="stroke:#181818;stroke-width:1.0;"/><text fill="#000000" font-family="sans-serif" font-size="13" lengthAdjust="spacing" textLength="112" x="70" y="424.7231">&#1059;&#1093;&#1086;&#1076;&#1080;&#1090; &#1074; &#1086;&#1090;&#1087;&#1091;&#1089;&#1082;</text><polygon fill="#181818" points="590,467.9219,600,471.9219,590,475.9219,594,471.9219" style="stroke:#181818;stroke-width:1.0;"/><line style="stroke:#181818;stroke-width:1.0;" x1="63" x2="596" y1="471.9219" y2="471.9219"/><text fill="#000000" font-family="sans-serif" font-size="13" lengthAdjust="spacing" textLength="279" x="70" y="466.856">&#1048;&#1085;&#1092;&#1086;&#1088;&#1084;&#1080;&#1088;&#1091;&#1077;&#1090; &#1086; &#1074;&#1086;&#1079;&#1074;&#1088;&#1072;&#1097;&#1077;&#1085;&#1080;&#1080; &#1080;&#1079; &#1086;&#1090;&#1087;&#1091;&#1089;&#1082;&#1072;</text><line style="stroke:#000000;stroke-width:1.0;stroke-dasharray:2.0,2.0;" x1="10" x2="1125" y1="480.9219" y2="480.9219"/><text fill="#000000" font-family="sans-serif" font-size="11" font-weight="bold" lengthAdjust="spacing" textLength="128" x="15" y="491.1323">[&#1047;&#1072;&#1103;&#1074;&#1082;&#1072; &#1086;&#1090;&#1082;&#1083;&#1086;&#1085;&#1077;&#1085;&#1072;]</text><polygon fill="#181818" points="74,511.8594,64,515.8594,74,519.8594,70,515.8594" style="stroke:#181818;stroke-width:1.0;"/><line style="stroke:#181818;stroke-width:1.0;" x1="68" x2="259" y1="515.8594" y2="515.8594"/><text fill="#000000" font-family="sans-serif" font-size="13" lengthAdjust="spacing" textLength="142" x="80" y="510.7935">&#1057;&#1086;&#1086;&#1073;&#1097;&#1072;&#1077;&#1090; &#1086;&#1073; &#1086;&#1090;&#1082;&#1072;&#1079;&#1077;</text><!--SRC=[dLHjJi904Fs_fzWBU05_U1LZj3zCY2RQ0z3YHmWcn5_wHzHuWGLQgKNA5MPkv9ifAnGMC98qQMPcttlpzfNuF6v5bbwvJHNVKSu99nQlDtZQz4rJocb61VUbcDASEvnGISwOazFuyihIkzIvpHtAP91AttX3gQIAHdWo8AH0clA3RmzGoAHqB72KYG0Q-UuZU6vfZCPK3g892SPiijc3ewrKXzXBAmu8gQK9EUvZgEIEnMdNMCbiGzd7K0iNZG1NdZ5A3WwAl8PhcBDKM4mx-gGPzoYtQ0f03bKfzyn9AxRqv8MgHX1MDCIKt8Gp5h-TMiFEgXcveeGCgM73H_UWRXfG8KKfi5CqO85SLKvVwmdwD-DWcKxFA2OMEZOHnuPDhdmlLp1l8SjMY6hGuCcTc2zmvXxloLA-P09fcEDpqvucP67bSWqDJCqQ_Wusgc3xW8P5Hgp4RpNoEw2sclyC6Tx-Ge_LEgrcSO8z9FpT-cz35YlqIXet7xMke_MKOw34-fLcvKyv3ssBcduitL__V1Rqoc1VT77s0m00]--></g></svg>