<svg xmlns="http://www.w3.org/2000/svg" xmlns:xlink="http://www.w3.org/1999/xlink" contentStyleType="text/css" height="480px" preserveAspectRatio="none" style="width:1719px;height:480px;background:#FFFFFF;" version="1.1" viewBox="0 0 1719 480" width="1719px" zoomAndPan="magnify"><defs/><g><!--entity user--><g id="elem_user"><ellipse cx="1321.22" cy="151.29" fill="#F1F1F1" rx="8" ry="8" style="stroke:#181818;stroke-width:0.5;"/><path d="M1321.22,159.29 L1321.22,186.29 M1308.22,167.29 L1334.22,167.29 M1321.22,186.29 L1308.22,201.29 M1321.22,186.29 L1334.22,201.29 " fill="none" style="stroke:#181818;stroke-width:0.5;"/><text fill="#000000" font-family="sans-serif" font-size="14" lengthAdjust="spacing" textLength="172" x="1235.22" y="215.7851">Пользователь системы</text></g><!--entity client--><g id="elem_client"><ellipse cx="858.22" cy="14" fill="#F1F1F1" rx="8" ry="8" style="stroke:#181818;stroke-width:0.5;"/><path d="M858.22,22 L858.22,49 M845.22,30 L871.22,30 M858.22,49 L845.22,64 M858.22,49 L871.22,64 " fill="none" style="stroke:#181818;stroke-width:0.5;"/><text fill="#000000" font-family="sans-serif" font-size="14" lengthAdjust="spacing" textLength="55" x="830.72" y="78.4951">Клиент</text></g><!--entity manager--><g id="elem_manager"><ellipse cx="1210.22" cy="14" fill="#F1F1F1" rx="8" ry="8" style="stroke:#181818;stroke-width:0.5;"/><path d="M1210.22,22 L1210.22,49 M1197.22,30 L1223.22,30 M1210.22,49 L1197.22,64 M1210.22,49 L1223.22,64 " fill="none" style="stroke:#181818;stroke-width:0.5;"/><text fill="#000000" font-family="sans-serif" font-size="14" lengthAdjust="spacing" textLength="80" x="1170.22" y="78.4951">Менеджер</text></g><g id="elem_GMN7"><path d="M1442.22,160.81 L1442.22,176.94 L1407.72,180.94 L1442.22,184.94 L1442.22,201.0756 A0,0 0 0 0 1442.22,201.0756 L1712.22,201.0756 A0,0 0 0 0 1712.22,201.0756 L1712.22,170.81 L1702.22,160.81 L1442.22,160.81 A0,0 0 0 0 1442.22,160.81 " fill="#FEFFDD" style="stroke:#181818;stroke-width:0.5;"/><path d="M1702.22,160.81 L1702.22,170.81 L1712.22,170.81 L1702.22,160.81 " fill="#FEFFDD" style="stroke:#181818;stroke-width:0.5;"/><text fill="#000000" font-family="sans-serif" font-size="13" lengthAdjust="spacing" textLength="218" x="1448.22" y="177.8769">Роль пользователя необходима</text><text fill="#000000" font-family="sans-serif" font-size="13" lengthAdjust="spacing" textLength="249" x="1448.22" y="193.0097">лишь для демонстрации обобщения</text></g><g id="elem_registerLogin"><ellipse cx="878.2244" cy="180.9449" fill="#F1F1F1" rx="87.4744" ry="19.8949" style="stroke:#181818;stroke-width:0.5;"/><text fill="#000000" font-family="sans-serif" font-size="14" lengthAdjust="spacing" textLength="136" x="810.2244" y="183.7916">Регистрация/Вход</text></g><g id="elem_selectPizza"><ellipse cx="682.2178" cy="180.9436" fill="#F1F1F1" rx="73.0678" ry="17.0136" style="stroke:#181818;stroke-width:0.5;"/><text fill="#000000" font-family="sans-serif" font-size="14" lengthAdjust="spacing" textLength="101" x="628.7178" y="184.6911">Выбор пиццы</text></g><g id="elem_customizePizza"><ellipse cx="602.2232" cy="323.7886" fill="#F1F1F1" rx="85.2932" ry="19.4586" style="stroke:#181818;stroke-width:0.5;"/><text fill="#000000" font-family="sans-serif" font-size="14" lengthAdjust="spacing" textLength="131" x="536.7232" y="326.6353">Настройка пиццы</text></g><g id="elem_addToppings"><ellipse cx="363.2151" cy="451.695" fill="#F1F1F1" rx="104.0751" ry="23.215" style="stroke:#181818;stroke-width:0.5;"/><text fill="#000000" font-family="sans-serif" font-size="14" lengthAdjust="spacing" textLength="173" x="276.7151" y="454.5417">Добавление топпингов</text></g><g id="elem_addSides"><ellipse cx="602.2203" cy="451.7041" fill="#F1F1F1" rx="99.5203" ry="22.3041" style="stroke:#181818;stroke-width:0.5;"/><text fill="#000000" font-family="sans-serif" font-size="14" lengthAdjust="spacing" textLength="163" x="520.7203" y="454.5507">Добавление гарниров</text></g><g id="elem_chooseSize"><ellipse cx="814.2232" cy="451.7006" fill="#F1F1F1" rx="77.7532" ry="17.9506" style="stroke:#181818;stroke-width:0.5;"/><text fill="#000000" font-family="sans-serif" font-size="14" lengthAdjust="spacing" textLength="113" x="755.1694" y="455.3309">Выбор размера</text></g><g id="elem_choosePaymentMethod"><ellipse cx="400.2208" cy="180.9422" fill="#F1F1F1" rx="103.1608" ry="23.0322" style="stroke:#181818;stroke-width:0.5;"/><text fill="#000000" font-family="sans-serif" font-size="14" lengthAdjust="spacing" textLength="171" x="314.7208" y="183.7888">Выбор способа оплаты</text></g><g id="elem_placeOrder"><ellipse cx="99.2229" cy="180.9446" fill="#F1F1F1" rx="93.2229" ry="21.0446" style="stroke:#181818;stroke-width:0.5;"/><text fill="#000000" font-family="sans-serif" font-size="14" lengthAdjust="spacing" textLength="149" x="24.7229" y="183.7913">Оформление заказа</text></g><g id="elem_trackOrder"><ellipse cx="1100.2203" cy="180.9441" fill="#F1F1F1" rx="99.5203" ry="22.3041" style="stroke:#181818;stroke-width:0.5;"/><text fill="#000000" font-family="sans-serif" font-size="14" lengthAdjust="spacing" textLength="163" x="1018.7203" y="183.7907">Отслеживание заказа</text></g><g id="elem_GMN30"><path d="M92.22,296.09 L92.22,351.4884 A0,0 0 0 0 92.22,351.4884 L482.22,351.4884 A0,0 0 0 0 482.22,351.4884 L482.22,327.79 L516.68,323.79 L482.22,319.79 L482.22,306.09 L472.22,296.09 L92.22,296.09 A0,0 0 0 0 92.22,296.09 " fill="#FEFFDD" style="stroke:#181818;stroke-width:0.5;"/><path d="M472.22,296.09 L472.22,306.09 L482.22,306.09 L472.22,296.09 " fill="#FEFFDD" style="stroke:#181818;stroke-width:0.5;"/><text fill="#000000" font-family="sans-serif" font-size="13" lengthAdjust="spacing" textLength="348" x="98.22" y="313.1569">Хоть данный прецедент и является расширением,</text><text fill="#000000" font-family="sans-serif" font-size="13" lengthAdjust="spacing" textLength="359" x="98.22" y="328.2897">но он может использоваться клиентом полноценно.</text><text fill="#000000" font-family="sans-serif" font-size="13" lengthAdjust="spacing" textLength="369" x="98.22" y="343.4225">По этому между ними установлена связь ассоциации.</text></g><!--link client to user--><g id="link_client_user"><path d="M885.91,51.45 C946.42,66.48 1094.88,104.28 1217.22,142.79 C1222.98,144.61 1211.8294,140.8307 1217.7794,142.8207 " fill="none" id="client-to-user" style="stroke:#181818;stroke-width:1.0;stroke-dasharray:7.0,7.0;"/><polygon fill="none" points="1234.85,148.53,1219.6826,137.1305,1215.8763,148.5109,1234.85,148.53" style="stroke:#181818;stroke-width:1.0;"/></g><!--link manager to user--><g id="link_manager_user"><path d="M1240.85,81.97 C1256.38,100.9 1263.7641,109.9032 1279.2841,128.8232 " fill="none" id="manager-to-user" style="stroke:#181818;stroke-width:1.0;stroke-dasharray:7.0,7.0;"/><polygon fill="none" points="1290.7,142.74,1283.923,125.0179,1274.6452,132.6285,1290.7,142.74" style="stroke:#181818;stroke-width:1.0;"/></g><!--link client to registerLogin--><g id="link_client_registerLogin"><path d="M863.74,81.97 C867.51,107.47 872.35,140.22 875.37,160.64 " fill="none" id="client-registerLogin" style="stroke:#181818;stroke-width:1.0;"/></g><!--link client to selectPizza--><g id="link_client_selectPizza"><path d="M830.34,66.08 C794.76,93.43 734.09,140.07 702.57,164.3 " fill="none" id="client-selectPizza" style="stroke:#181818;stroke-width:1.0;"/></g><!--link client to customizePizza--><g id="link_client_customizePizza"><path d="M830.23,45.21 C773.7,48.05 646.62,63.41 591.22,142.79 C556.73,192.22 580.33,269.09 594.16,304.18 " fill="none" id="client-customizePizza" style="stroke:#181818;stroke-width:1.0;"/></g><!--link client to placeOrder--><g id="link_client_placeOrder"><path d="M830.44,49 C746.89,62.15 490.65,103.07 279.22,142.79 C241.43,149.89 199.34,158.54 165.36,165.71 " fill="none" id="client-placeOrder" style="stroke:#181818;stroke-width:1.0;"/></g><!--link client to trackOrder--><g id="link_client_trackOrder"><path d="M885.98,60.17 C929.93,84.74 1015.52,132.59 1064.16,159.78 " fill="none" id="client-trackOrder" style="stroke:#181818;stroke-width:1.0;"/></g><!--link placeOrder to choosePaymentMethod--><g id="link_placeOrder_choosePaymentMethod"><path d="M192.81,180.94 C225.77,180.94 257.01,180.94 290.74,180.94 " fill="none" id="placeOrder-to-choosePaymentMethod" style="stroke:#181818;stroke-width:1.0;stroke-dasharray:7.0,7.0;"/><polygon fill="#181818" points="296.74,180.94,287.74,176.94,291.74,180.94,287.74,184.94,296.74,180.94" style="stroke:#181818;stroke-width:1.0;"/><text fill="#000000" font-family="sans-serif" font-size="13" lengthAdjust="spacing" textLength="68" x="210.75" y="174.0069">включает</text></g><!--link manager to trackOrder--><g id="link_manager_trackOrder"><path d="M1179.87,81.97 C1159.78,106.69 1134.15,138.22 1117.47,158.73 " fill="none" id="manager-trackOrder" style="stroke:#181818;stroke-width:1.0;"/></g><!--link selectPizza to customizePizza--><g id="link_selectPizza_customizePizza"><path d="M673.05,198.1 C658.11,224.4 631.5731,271.1127 615.7731,298.9327 " fill="none" id="selectPizza-to-customizePizza" style="stroke:#181818;stroke-width:1.0;stroke-dasharray:7.0,7.0;"/><polygon fill="#181818" points="612.81,304.15,620.7328,298.2995,615.2792,299.8023,613.7764,294.3487,612.81,304.15" style="stroke:#181818;stroke-width:1.0;"/><text fill="#000000" font-family="sans-serif" font-size="13" lengthAdjust="spacing" textLength="75" x="643.22" y="262.1569">расширяет</text></g><!--link customizePizza to addToppings--><g id="link_customizePizza_addToppings"><path d="M569.49,342.03 C526.03,364.93 454.6382,402.543 408.0082,427.113 " fill="none" id="customizePizza-to-addToppings" style="stroke:#181818;stroke-width:1.0;stroke-dasharray:7.0,7.0;"/><polygon fill="#181818" points="402.7,429.91,412.5269,429.2534,407.1235,427.5792,408.7977,422.1758,402.7,429.91" style="stroke:#181818;stroke-width:1.0;"/><text fill="#000000" font-family="sans-serif" font-size="13" lengthAdjust="spacing" textLength="75" x="491.22" y="394.5569">расширяет</text></g><!--link customizePizza to addSides--><g id="link_customizePizza_addSides"><path d="M602.22,343.64 C602.22,366.56 602.22,399.14 602.22,423.19 " fill="none" id="customizePizza-to-addSides" style="stroke:#181818;stroke-width:1.0;stroke-dasharray:7.0,7.0;"/><polygon fill="#181818" points="602.22,429.19,606.22,420.19,602.22,424.19,598.22,420.19,602.22,429.19" style="stroke:#181818;stroke-width:1.0;"/><text fill="#000000" font-family="sans-serif" font-size="13" lengthAdjust="spacing" textLength="75" x="603.22" y="394.5569">расширяет</text></g><!--link customizePizza to chooseSize--><g id="link_customizePizza_chooseSize"><path d="M631.7,342.3 C672.89,366.76 741.9112,407.7562 781.8512,431.4762 " fill="none" id="customizePizza-to-chooseSize" style="stroke:#181818;stroke-width:1.0;stroke-dasharray:7.0,7.0;"/><polygon fill="#181818" points="787.01,434.54,781.3143,426.5051,782.711,431.9869,777.2293,433.3836,787.01,434.54" style="stroke:#181818;stroke-width:1.0;"/><text fill="#000000" font-family="sans-serif" font-size="13" lengthAdjust="spacing" textLength="75" x="722.22" y="394.5569">расширяет</text></g><!--SRC=[bLJDRjD04BxxALOzqt3da2S0KQcyWELi4ul4ZcptGCGXIQ4KjH2fueJuwOMxQUF6JMBp2hjln3UpSRonWW15IUoT-RxvvcV7zP8m4WVgkohLIb-f1VvlLQgdAgDteISgrnD-NUlB0-76uZIMaUDkS9_LIkKm5dhAHg_loo3Pch-G2T-vkbUP7hFBm0tSBYWSuojQhTTjGxgnM2TE42PIH7wtbuZmn9of6wDLg5zxHSy4XopLJ_qMltFeMwlK8Q7wWc1pupIddE1GK7vw3FmvN7D1I4Q_P_6vdZaow0XIuZXGuBcnH6etiDwPubHWFNkiharGpZIINJzEPFGqxFg11RtMbnH2Zoc5N9_ZOqeRoxxqaYD_D78jzwzWDr5AzQ2MAct2lDCu2GV-I3QHdpYN5CLPcLnK9b2b4dWmuE2EAiSSRgVp8XmE_Q0R_uK0e1HQg39Z6txiTsIyDqkg3vgqfX5GgP7S2yDO7aFpViI4cejV3YzOyOewN6NCy2FtrG0Jz4mclR1ZyNpJRuW50ItL2sXOiWwZODXtFVaywc2YREGKGGbr3nHcwa_e97AzbmPTpV7XOQFXzRdTr_gqqRRQO4ch3ws8jLsqsljg8Pu8Y5zYpZ_gTr2TwQcplLsxN8wb3HUltL059fxkYRwWVkiPSpLy26RDp_zWU6Z-6L1FpNw8MHTzUSBReb5VzGD3CJKBWFfQODeUS9N0a-7sPhmGiCS4TW3uRcbB42jYp7Q2LJEbre-4WyUIvhCGl4nepH636U3TxQIlc8hwKkrCcDQRFKP4BAEWfnQOiPE5_c2Sz1dnqrZEwR7WfGQTPxoSAProUqbJkZwt4B-WP4dsXAdpQiMrjWljDm00]--></g></svg>