<svg xmlns="http://www.w3.org/2000/svg" xmlns:xlink="http://www.w3.org/1999/xlink" contentStyleType="text/css" height="793px" preserveAspectRatio="none" style="width:1361px;height:793px;background:#FFFFFF;" version="1.1" viewBox="0 0 1361 793" width="1361px" zoomAndPan="magnify"><defs/><g><rect fill="none" height="46.2656" style="stroke:#000000;stroke-width:1.5;" width="1325" x="20" y="98.2969"/><rect fill="none" height="106.5313" style="stroke:#000000;stroke-width:1.5;" width="1345" x="10" y="560.1563"/><rect fill="none" height="46.2656" style="stroke:#000000;stroke-width:1.5;" width="1325" x="20" y="613.4219"/><line style="stroke:#181818;stroke-width:0.5;stroke-dasharray:5.0,5.0;" x1="68" x2="68" y1="81.2969" y2="712.8203"/><line style="stroke:#181818;stroke-width:0.5;stroke-dasharray:5.0,5.0;" x1="383.5" x2="383.5" y1="81.2969" y2="712.8203"/><line style="stroke:#181818;stroke-width:0.5;stroke-dasharray:5.0,5.0;" x1="629.5" x2="629.5" y1="81.2969" y2="712.8203"/><line style="stroke:#181818;stroke-width:0.5;stroke-dasharray:5.0,5.0;" x1="962.5" x2="962.5" y1="81.2969" y2="712.8203"/><line style="stroke:#181818;stroke-width:0.5;stroke-dasharray:5.0,5.0;" x1="1304" x2="1304" y1="81.2969" y2="712.8203"/><rect fill="#E2E2F0" height="30.2969" rx="2.5" ry="2.5" style="stroke:#181818;stroke-width:0.5;" width="77" x="30" y="50"/><text fill="#000000" font-family="sans-serif" font-size="14" lengthAdjust="spacing" textLength="63" x="37" y="69.9951">Система</text><rect fill="#E2E2F0" height="30.2969" rx="2.5" ry="2.5" style="stroke:#181818;stroke-width:0.5;" width="77" x="30" y="711.8203"/><text fill="#000000" font-family="sans-serif" font-size="14" lengthAdjust="spacing" textLength="63" x="37" y="731.8154">Система</text><text fill="#000000" font-family="sans-serif" font-size="14" lengthAdjust="spacing" textLength="80" x="340.5" y="77.9951">Менеджер</text><ellipse cx="383.5" cy="13.5" fill="#E2E2F0" rx="8" ry="8" style="stroke:#181818;stroke-width:0.5;"/><path d="M383.5,21.5 L383.5,48.5 M370.5,29.5 L396.5,29.5 M383.5,48.5 L370.5,63.5 M383.5,48.5 L396.5,63.5 " fill="none" style="stroke:#181818;stroke-width:0.5;"/><text fill="#000000" font-family="sans-serif" font-size="14" lengthAdjust="spacing" textLength="80" x="340.5" y="724.8154">Менеджер</text><ellipse cx="383.5" cy="736.6172" fill="#E2E2F0" rx="8" ry="8" style="stroke:#181818;stroke-width:0.5;"/><path d="M383.5,744.6172 L383.5,771.6172 M370.5,752.6172 L396.5,752.6172 M383.5,771.6172 L370.5,786.6172 M383.5,771.6172 L396.5,786.6172 " fill="none" style="stroke:#181818;stroke-width:0.5;"/><text fill="#000000" font-family="sans-serif" font-size="14" lengthAdjust="spacing" textLength="44" x="604.5" y="77.9951">Повар</text><ellipse cx="629.5" cy="13.5" fill="#E2E2F0" rx="8" ry="8" style="stroke:#181818;stroke-width:0.5;"/><path d="M629.5,21.5 L629.5,48.5 M616.5,29.5 L642.5,29.5 M629.5,48.5 L616.5,63.5 M629.5,48.5 L642.5,63.5 " fill="none" style="stroke:#181818;stroke-width:0.5;"/><text fill="#000000" font-family="sans-serif" font-size="14" lengthAdjust="spacing" textLength="44" x="604.5" y="724.8154">Повар</text><ellipse cx="629.5" cy="736.6172" fill="#E2E2F0" rx="8" ry="8" style="stroke:#181818;stroke-width:0.5;"/><path d="M629.5,744.6172 L629.5,771.6172 M616.5,752.6172 L642.5,752.6172 M629.5,771.6172 L616.5,786.6172 M629.5,771.6172 L642.5,786.6172 " fill="none" style="stroke:#181818;stroke-width:0.5;"/><text fill="#000000" font-family="sans-serif" font-size="14" lengthAdjust="spacing" textLength="52" x="933.5" y="77.9951">Курьер</text><ellipse cx="962.5" cy="13.5" fill="#E2E2F0" rx="8" ry="8" style="stroke:#181818;stroke-width:0.5;"/><path d="M962.5,21.5 L962.5,48.5 M949.5,29.5 L975.5,29.5 M962.5,48.5 L949.5,63.5 M962.5,48.5 L975.5,63.5 " fill="none" style="stroke:#181818;stroke-width:0.5;"/><text fill="#000000" font-family="sans-serif" font-size="14" lengthAdjust="spacing" textLength="52" x="933.5" y="724.8154">Курьер</text><ellipse cx="962.5" cy="736.6172" fill="#E2E2F0" rx="8" ry="8" style="stroke:#181818;stroke-width:0.5;"/><path d="M962.5,744.6172 L962.5,771.6172 M949.5,752.6172 L975.5,752.6172 M962.5,771.6172 L949.5,786.6172 M962.5,771.6172 L975.5,786.6172 " fill="none" style="stroke:#181818;stroke-width:0.5;"/><text fill="#000000" font-family="sans-serif" font-size="14" lengthAdjust="spacing" textLength="55" x="1274" y="77.9951">Клиент</text><ellipse cx="1304.5" cy="13.5" fill="#E2E2F0" rx="8" ry="8" style="stroke:#181818;stroke-width:0.5;"/><path d="M1304.5,21.5 L1304.5,48.5 M1291.5,29.5 L1317.5,29.5 M1304.5,48.5 L1291.5,63.5 M1304.5,48.5 L1317.5,63.5 " fill="none" style="stroke:#181818;stroke-width:0.5;"/><text fill="#000000" font-family="sans-serif" font-size="14" lengthAdjust="spacing" textLength="55" x="1274" y="724.8154">Клиент</text><ellipse cx="1304.5" cy="736.6172" fill="#E2E2F0" rx="8" ry="8" style="stroke:#181818;stroke-width:0.5;"/><path d="M1304.5,744.6172 L1304.5,771.6172 M1291.5,752.6172 L1317.5,752.6172 M1304.5,771.6172 L1291.5,786.6172 M1304.5,771.6172 L1317.5,786.6172 " fill="none" style="stroke:#181818;stroke-width:0.5;"/><path d="M20,98.2969 L105,98.2969 L105,105.4297 L95,115.4297 L20,115.4297 L20,98.2969 " fill="#EEEEEE" style="stroke:#000000;stroke-width:1.5;"/><rect fill="none" height="46.2656" style="stroke:#000000;stroke-width:1.5;" width="1325" x="20" y="98.2969"/><text fill="#000000" font-family="sans-serif" font-size="13" font-weight="bold" lengthAdjust="spacing" textLength="40" x="35" y="111.3638">Цикл</text><polygon fill="#181818" points="1292.5,132.5625,1302.5,136.5625,1292.5,140.5625,1296.5,136.5625" style="stroke:#181818;stroke-width:1.0;"/><line style="stroke:#181818;stroke-width:1.0;" x1="68.5" x2="1298.5" y1="136.5625" y2="136.5625"/><text fill="#000000" font-family="sans-serif" font-size="13" lengthAdjust="spacing" textLength="268" x="75.5" y="131.4966">Передаёт сообщения о статусе заказа</text><polygon fill="#181818" points="371.5,168.6953,381.5,172.6953,371.5,176.6953,375.5,172.6953" style="stroke:#181818;stroke-width:1.0;"/><line style="stroke:#181818;stroke-width:1.0;" x1="68.5" x2="377.5" y1="172.6953" y2="172.6953"/><text fill="#000000" font-family="sans-serif" font-size="13" lengthAdjust="spacing" textLength="254" x="75.5" y="167.6294">Передаёт сообщение о новом заказе</text><line style="stroke:#181818;stroke-width:1.0;" x1="383.5" x2="425.5" y1="201.8281" y2="201.8281"/><line style="stroke:#181818;stroke-width:1.0;" x1="425.5" x2="425.5" y1="201.8281" y2="214.8281"/><line style="stroke:#181818;stroke-width:1.0;" x1="384.5" x2="425.5" y1="214.8281" y2="214.8281"/><polygon fill="#181818" points="394.5,210.8281,384.5,214.8281,394.5,218.8281,390.5,214.8281" style="stroke:#181818;stroke-width:1.0;"/><text fill="#000000" font-family="sans-serif" font-size="13" lengthAdjust="spacing" textLength="144" x="390.5" y="196.7622">Обрабатывает заказ</text><polygon fill="#181818" points="79.5,239.9609,69.5,243.9609,79.5,247.9609,75.5,243.9609" style="stroke:#181818;stroke-width:1.0;"/><line style="stroke:#181818;stroke-width:1.0;stroke-dasharray:2.0,2.0;" x1="73.5" x2="382.5" y1="243.9609" y2="243.9609"/><text fill="#000000" font-family="sans-serif" font-size="13" lengthAdjust="spacing" textLength="181" x="85.5" y="238.895">Принимает заказ в работу</text><polygon fill="#181818" points="617.5,269.0938,627.5,273.0938,617.5,277.0938,621.5,273.0938" style="stroke:#181818;stroke-width:1.0;"/><line style="stroke:#181818;stroke-width:1.0;" x1="68.5" x2="623.5" y1="273.0938" y2="273.0938"/><text fill="#000000" font-family="sans-serif" font-size="13" lengthAdjust="spacing" textLength="256" x="75.5" y="268.0278">Передаёт задание на готовку пиццы</text><line style="stroke:#181818;stroke-width:1.0;" x1="629.5" x2="671.5" y1="302.2266" y2="302.2266"/><line style="stroke:#181818;stroke-width:1.0;" x1="671.5" x2="671.5" y1="302.2266" y2="315.2266"/><line style="stroke:#181818;stroke-width:1.0;" x1="630.5" x2="671.5" y1="315.2266" y2="315.2266"/><polygon fill="#181818" points="640.5,311.2266,630.5,315.2266,640.5,319.2266,636.5,315.2266" style="stroke:#181818;stroke-width:1.0;"/><text fill="#000000" font-family="sans-serif" font-size="13" lengthAdjust="spacing" textLength="319" x="636.5" y="297.1606">Готовит пиццу и размещает её в окне выдачи</text><polygon fill="#181818" points="79.5,340.3594,69.5,344.3594,79.5,348.3594,75.5,344.3594" style="stroke:#181818;stroke-width:1.0;"/><line style="stroke:#181818;stroke-width:1.0;stroke-dasharray:2.0,2.0;" x1="73.5" x2="628.5" y1="344.3594" y2="344.3594"/><text fill="#000000" font-family="sans-serif" font-size="13" lengthAdjust="spacing" textLength="153" x="85.5" y="339.2935">Меняет статус заказа</text><polygon fill="#181818" points="371.5,369.4922,381.5,373.4922,371.5,377.4922,375.5,373.4922" style="stroke:#181818;stroke-width:1.0;"/><line style="stroke:#181818;stroke-width:1.0;" x1="68.5" x2="377.5" y1="373.4922" y2="373.4922"/><text fill="#000000" font-family="sans-serif" font-size="13" lengthAdjust="spacing" textLength="291" x="75.5" y="368.4263">Передаёт сообщение о готовности пиццы</text><line style="stroke:#181818;stroke-width:1.0;" x1="383.5" x2="425.5" y1="402.625" y2="402.625"/><line style="stroke:#181818;stroke-width:1.0;" x1="425.5" x2="425.5" y1="402.625" y2="415.625"/><line style="stroke:#181818;stroke-width:1.0;" x1="384.5" x2="425.5" y1="415.625" y2="415.625"/><polygon fill="#181818" points="394.5,411.625,384.5,415.625,394.5,419.625,390.5,415.625" style="stroke:#181818;stroke-width:1.0;"/><text fill="#000000" font-family="sans-serif" font-size="13" lengthAdjust="spacing" textLength="232" x="390.5" y="397.5591">Составляет задание для курьера</text><polygon fill="#181818" points="79.5,440.7578,69.5,444.7578,79.5,448.7578,75.5,444.7578" style="stroke:#181818;stroke-width:1.0;"/><line style="stroke:#181818;stroke-width:1.0;stroke-dasharray:2.0,2.0;" x1="73.5" x2="382.5" y1="444.7578" y2="444.7578"/><text fill="#000000" font-family="sans-serif" font-size="13" lengthAdjust="spacing" textLength="153" x="85.5" y="439.6919">Меняет статус заказа</text><polygon fill="#181818" points="950.5,469.8906,960.5,473.8906,950.5,477.8906,954.5,473.8906" style="stroke:#181818;stroke-width:1.0;"/><line style="stroke:#181818;stroke-width:1.0;" x1="68.5" x2="956.5" y1="473.8906" y2="473.8906"/><text fill="#000000" font-family="sans-serif" font-size="13" lengthAdjust="spacing" textLength="218" x="75.5" y="468.8247">Передаёт задание на доставку</text><line style="stroke:#181818;stroke-width:1.0;" x1="962.5" x2="1004.5" y1="503.0234" y2="503.0234"/><line style="stroke:#181818;stroke-width:1.0;" x1="1004.5" x2="1004.5" y1="503.0234" y2="516.0234"/><line style="stroke:#181818;stroke-width:1.0;" x1="963.5" x2="1004.5" y1="516.0234" y2="516.0234"/><polygon fill="#181818" points="973.5,512.0234,963.5,516.0234,973.5,520.0234,969.5,516.0234" style="stroke:#181818;stroke-width:1.0;"/><text fill="#000000" font-family="sans-serif" font-size="13" lengthAdjust="spacing" textLength="307" x="969.5" y="497.9575">получает пиццу и доставляет её по адрессу</text><polygon fill="#181818" points="1292.5,541.1563,1302.5,545.1563,1292.5,549.1563,1296.5,545.1563" style="stroke:#181818;stroke-width:1.0;"/><line style="stroke:#181818;stroke-width:1.0;" x1="962.5" x2="1298.5" y1="545.1563" y2="545.1563"/><text fill="#000000" font-family="sans-serif" font-size="13" lengthAdjust="spacing" textLength="113" x="969.5" y="540.0903">Передаёт пиццу</text><path d="M10,560.1563 L111,560.1563 L111,567.2891 L101,577.2891 L10,577.2891 L10,560.1563 " fill="#EEEEEE" style="stroke:#000000;stroke-width:1.5;"/><rect fill="none" height="106.5313" style="stroke:#000000;stroke-width:1.5;" width="1345" x="10" y="560.1563"/><text fill="#000000" font-family="sans-serif" font-size="13" font-weight="bold" lengthAdjust="spacing" textLength="56" x="25" y="573.2231">Оплата</text><polygon fill="#181818" points="973.5,594.4219,963.5,598.4219,973.5,602.4219,969.5,598.4219" style="stroke:#181818;stroke-width:1.0;"/><line style="stroke:#181818;stroke-width:1.0;stroke-dasharray:2.0,2.0;" x1="967.5" x2="1303.5" y1="598.4219" y2="598.4219"/><text fill="#000000" font-family="sans-serif" font-size="13" lengthAdjust="spacing" textLength="318" x="979.5" y="593.356">Передаёт оплату наличными или эквайрингом</text><path d="M20,613.4219 L312,613.4219 L312,620.5547 L302,630.5547 L20,630.5547 L20,613.4219 " fill="#EEEEEE" style="stroke:#000000;stroke-width:1.5;"/><rect fill="none" height="46.2656" style="stroke:#000000;stroke-width:1.5;" width="1325" x="20" y="613.4219"/><text fill="#000000" font-family="sans-serif" font-size="13" font-weight="bold" lengthAdjust="spacing" textLength="247" x="35" y="626.4888">Альтернативный способ оплаты</text><polygon fill="#181818" points="79.5,647.6875,69.5,651.6875,79.5,655.6875,75.5,651.6875" style="stroke:#181818;stroke-width:1.0;"/><line style="stroke:#181818;stroke-width:1.0;stroke-dasharray:2.0,2.0;" x1="73.5" x2="1303.5" y1="651.6875" y2="651.6875"/><text fill="#000000" font-family="sans-serif" font-size="13" lengthAdjust="spacing" textLength="256" x="85.5" y="646.6216">Оплачивает через интернет-банкинг</text><polygon fill="#181818" points="79.5,690.8203,69.5,694.8203,79.5,698.8203,75.5,694.8203" style="stroke:#181818;stroke-width:1.0;"/><line style="stroke:#181818;stroke-width:1.0;stroke-dasharray:2.0,2.0;" x1="73.5" x2="961.5" y1="694.8203" y2="694.8203"/><text fill="#000000" font-family="sans-serif" font-size="13" lengthAdjust="spacing" textLength="251" x="85.5" y="689.7544">Меняет статус заказа на выполнено</text><!--SRC=[fLJBJi905DttA-O7-04N_ak3n12Lab8NxW0JYK6Znfqn63Ukgr8PAIs_SEUFFFTsfaoLH8aX3MtdddFFkO_smpZfjhlzi9SeUYPjHcPC6QqeLU503Su6IUSa2Dj952jwn461QquVb9aX1vo4lV2m4xk89ohfZTBgh1r5H-xWmPoReRboi7Pq6dSti0VAIJEv6SlfSRVJIuBWC8vE-ufUSBQaFAZ4gDQ-3TZZV20KHQcv0zYC8A2aLtCfKhMvKLGgyPIQCJICA5Eqe1I4AVy7dTw1Hspjg3zGCr6fSCUEIrhvj5dWY9gSCy27Y7WLDLCk5RACFUW62AJLnM80qv9rzGEYw4rPrf8z-dL21xPv4J0Ud8y2tQPtXekRfJbNj4RrBl2R1iBYiTtNWPgvN20mkXAoWCeCTR9ACtF76e5OylZW7jPPoeIq9M-ObJ4pDmBsMzTit7-Qjh6AzaaAxHlUthnd6ve2bbjvtmivvnF51NJJ3gNRMxghIxioVsxdt9CBFO73DwdMg4AEj1FNh4Ot6oIrP-ddckk8h2m48QDl6MH1jsgj4xZrdk5LpkvXr-9Ql_Wj7OHbmYr_Fc2Xm5ojMBRc5yfSeuoyOfzsUzvvJrtQMnYwucyT3Wj9htaUGF79OxDcvpmwVhQfBt3JIkTW8XHL8V5GYLwmdA9EXBCMxpzkbvKe-GJnLTTlzpcnFUV5aexAPngp_GK0]--></g></svg>