<svg xmlns="http://www.w3.org/2000/svg" xmlns:xlink="http://www.w3.org/1999/xlink" contentStyleType="text/css" height="860px" preserveAspectRatio="none" style="width:817px;height:860px;background:#FFFFFF;" version="1.1" viewBox="0 0 817 860" width="817px" zoomAndPan="magnify"><defs/><g><rect fill="#FFFFFF" height="657.3984" style="stroke:#181818;stroke-width:1.0;" width="10" x="223.5" y="112.4297"/><rect fill="#FFFFFF" height="628.2656" style="stroke:#181818;stroke-width:1.0;" width="10" x="512.5" y="141.5625"/><rect fill="#FFFFFF" height="349.3984" style="stroke:#181818;stroke-width:1.0;" width="10" x="748.5" y="170.6953"/><rect fill="none" height="577.1328" style="stroke:#000000;stroke-width:1.5;" width="801" x="10" y="185.6953"/><rect fill="none" height="398.3359" style="stroke:#000000;stroke-width:1.5;" width="781" x="20" y="238.9609"/><rect fill="none" height="235.8672" style="stroke:#000000;stroke-width:1.5;" width="761" x="30" y="321.3594"/><rect fill="none" height="104.5313" style="stroke:#000000;stroke-width:1.5;" width="611" x="180" y="651.2969"/><line style="stroke:#181818;stroke-width:0.5;stroke-dasharray:5.0,5.0;" x1="70" x2="70" y1="81.2969" y2="779.8281"/><line style="stroke:#181818;stroke-width:0.5;stroke-dasharray:5.0,5.0;" x1="228" x2="228" y1="81.2969" y2="779.8281"/><line style="stroke:#181818;stroke-width:0.5;stroke-dasharray:5.0,5.0;" x1="517" x2="517" y1="81.2969" y2="779.8281"/><line style="stroke:#181818;stroke-width:0.5;stroke-dasharray:5.0,5.0;" x1="753" x2="753" y1="81.2969" y2="779.8281"/><text fill="#000000" font-family="sans-serif" font-size="14" lengthAdjust="spacing" textLength="55" x="40" y="77.9951">Клиент</text><ellipse cx="70.5" cy="13.5" fill="#E2E2F0" rx="8" ry="8" style="stroke:#181818;stroke-width:0.5;"/><path d="M70.5,21.5 L70.5,48.5 M57.5,29.5 L83.5,29.5 M70.5,48.5 L57.5,63.5 M70.5,48.5 L83.5,63.5 " fill="none" style="stroke:#181818;stroke-width:0.5;"/><text fill="#000000" font-family="sans-serif" font-size="14" lengthAdjust="spacing" textLength="55" x="40" y="791.8232">Клиент</text><ellipse cx="70.5" cy="803.625" fill="#E2E2F0" rx="8" ry="8" style="stroke:#181818;stroke-width:0.5;"/><path d="M70.5,811.625 L70.5,838.625 M57.5,819.625 L83.5,819.625 M70.5,838.625 L57.5,853.625 M70.5,838.625 L83.5,853.625 " fill="none" style="stroke:#181818;stroke-width:0.5;"/><rect fill="#E2E2F0" height="30.2969" rx="2.5" ry="2.5" style="stroke:#181818;stroke-width:0.5;" width="77" x="190" y="50"/><text fill="#000000" font-family="sans-serif" font-size="14" lengthAdjust="spacing" textLength="63" x="197" y="69.9951">Система</text><rect fill="#E2E2F0" height="30.2969" rx="2.5" ry="2.5" style="stroke:#181818;stroke-width:0.5;" width="77" x="190" y="778.8281"/><text fill="#000000" font-family="sans-serif" font-size="14" lengthAdjust="spacing" textLength="63" x="197" y="798.8232">Система</text><text fill="#000000" font-family="sans-serif" font-size="14" lengthAdjust="spacing" textLength="73" x="478" y="77.9951">Оператор</text><ellipse cx="517.5" cy="13.5" fill="#E2E2F0" rx="8" ry="8" style="stroke:#181818;stroke-width:0.5;"/><path d="M517.5,21.5 L517.5,48.5 M504.5,29.5 L530.5,29.5 M517.5,48.5 L504.5,63.5 M517.5,48.5 L530.5,63.5 " fill="none" style="stroke:#181818;stroke-width:0.5;"/><text fill="#000000" font-family="sans-serif" font-size="14" lengthAdjust="spacing" textLength="73" x="478" y="791.8232">Оператор</text><ellipse cx="517.5" cy="803.625" fill="#E2E2F0" rx="8" ry="8" style="stroke:#181818;stroke-width:0.5;"/><path d="M517.5,811.625 L517.5,838.625 M504.5,819.625 L530.5,819.625 M517.5,838.625 L504.5,853.625 M517.5,838.625 L530.5,853.625 " fill="none" style="stroke:#181818;stroke-width:0.5;"/><rect fill="#E2E2F0" height="30.2969" rx="2.5" ry="2.5" style="stroke:#181818;stroke-width:0.5;" width="55" x="726" y="50"/><text fill="#000000" font-family="sans-serif" font-size="14" lengthAdjust="spacing" textLength="41" x="733" y="69.9951">Кухня</text><rect fill="#E2E2F0" height="30.2969" rx="2.5" ry="2.5" style="stroke:#181818;stroke-width:0.5;" width="55" x="726" y="778.8281"/><text fill="#000000" font-family="sans-serif" font-size="14" lengthAdjust="spacing" textLength="41" x="733" y="798.8232">Кухня</text><rect fill="#FFFFFF" height="657.3984" style="stroke:#181818;stroke-width:1.0;" width="10" x="223.5" y="112.4297"/><rect fill="#FFFFFF" height="628.2656" style="stroke:#181818;stroke-width:1.0;" width="10" x="512.5" y="141.5625"/><rect fill="#FFFFFF" height="349.3984" style="stroke:#181818;stroke-width:1.0;" width="10" x="748.5" y="170.6953"/><polygon fill="#181818" points="211.5,108.4297,221.5,112.4297,211.5,116.4297,215.5,112.4297" style="stroke:#181818;stroke-width:1.0;"/><line style="stroke:#181818;stroke-width:1.0;" x1="70.5" x2="217.5" y1="112.4297" y2="112.4297"/><text fill="#000000" font-family="sans-serif" font-size="13" lengthAdjust="spacing" textLength="134" x="77.5" y="107.3638">Размещение заказа</text><polygon fill="#181818" points="500.5,137.5625,510.5,141.5625,500.5,145.5625,504.5,141.5625" style="stroke:#181818;stroke-width:1.0;"/><line style="stroke:#181818;stroke-width:1.0;" x1="233.5" x2="506.5" y1="141.5625" y2="141.5625"/><text fill="#000000" font-family="sans-serif" font-size="13" lengthAdjust="spacing" textLength="197" x="240.5" y="136.4966">Уведомление о новом заказе</text><polygon fill="#181818" points="736.5,166.6953,746.5,170.6953,736.5,174.6953,740.5,170.6953" style="stroke:#181818;stroke-width:1.0;"/><line style="stroke:#181818;stroke-width:1.0;" x1="522.5" x2="742.5" y1="170.6953" y2="170.6953"/><text fill="#000000" font-family="sans-serif" font-size="13" lengthAdjust="spacing" textLength="207" x="529.5" y="165.6294">Передача задания на готовку</text><path d="M10,185.6953 L87,185.6953 L87,192.8281 L77,202.8281 L10,202.8281 L10,185.6953 " fill="#EEEEEE" style="stroke:#000000;stroke-width:1.5;"/><rect fill="none" height="577.1328" style="stroke:#000000;stroke-width:1.5;" width="801" x="10" y="185.6953"/><text fill="#000000" font-family="sans-serif" font-size="13" font-weight="bold" lengthAdjust="spacing" textLength="32" x="25" y="198.7622">loop</text><text fill="#000000" font-family="sans-serif" font-size="11" font-weight="bold" lengthAdjust="spacing" textLength="209" x="102" y="197.9058">[Попытки связаться с клиентом]</text><polygon fill="#181818" points="81.5,219.9609,71.5,223.9609,81.5,227.9609,77.5,223.9609" style="stroke:#181818;stroke-width:1.0;"/><line style="stroke:#181818;stroke-width:1.0;" x1="75.5" x2="511.5" y1="223.9609" y2="223.9609"/><text fill="#000000" font-family="sans-serif" font-size="13" lengthAdjust="spacing" textLength="109" x="87.5" y="218.895">Звонок клиенту</text><path d="M20,238.9609 L84,238.9609 L84,246.0938 L74,256.0938 L20,256.0938 L20,238.9609 " fill="#EEEEEE" style="stroke:#000000;stroke-width:1.5;"/><rect fill="none" height="398.3359" style="stroke:#000000;stroke-width:1.5;" width="781" x="20" y="238.9609"/><text fill="#000000" font-family="sans-serif" font-size="13" font-weight="bold" lengthAdjust="spacing" textLength="19" x="35" y="252.0278">alt</text><text fill="#000000" font-family="sans-serif" font-size="11" font-weight="bold" lengthAdjust="spacing" textLength="120" x="99" y="251.1714">[Клиент отвечает]</text><polygon fill="#181818" points="500.5,273.2266,510.5,277.2266,500.5,281.2266,504.5,277.2266" style="stroke:#181818;stroke-width:1.0;"/><line style="stroke:#181818;stroke-width:1.0;stroke-dasharray:2.0,2.0;" x1="70.5" x2="506.5" y1="277.2266" y2="277.2266"/><text fill="#000000" font-family="sans-serif" font-size="13" lengthAdjust="spacing" textLength="115" x="77.5" y="272.1606">Ответ на звонок</text><polygon fill="#181818" points="81.5,302.3594,71.5,306.3594,81.5,310.3594,77.5,306.3594" style="stroke:#181818;stroke-width:1.0;"/><line style="stroke:#181818;stroke-width:1.0;" x1="75.5" x2="511.5" y1="306.3594" y2="306.3594"/><text fill="#000000" font-family="sans-serif" font-size="13" lengthAdjust="spacing" textLength="260" x="87.5" y="301.2935">Уточнение времени и места доставки</text><path d="M30,321.3594 L94,321.3594 L94,328.4922 L84,338.4922 L30,338.4922 L30,321.3594 " fill="#EEEEEE" style="stroke:#000000;stroke-width:1.5;"/><rect fill="none" height="235.8672" style="stroke:#000000;stroke-width:1.5;" width="761" x="30" y="321.3594"/><text fill="#000000" font-family="sans-serif" font-size="13" font-weight="bold" lengthAdjust="spacing" textLength="19" x="45" y="334.4263">alt</text><text fill="#000000" font-family="sans-serif" font-size="11" font-weight="bold" lengthAdjust="spacing" textLength="157" x="109" y="333.5698">[Клиент подтверждает]</text><polygon fill="#181818" points="500.5,355.625,510.5,359.625,500.5,363.625,504.5,359.625" style="stroke:#181818;stroke-width:1.0;"/><line style="stroke:#181818;stroke-width:1.0;stroke-dasharray:2.0,2.0;" x1="70.5" x2="506.5" y1="359.625" y2="359.625"/><text fill="#000000" font-family="sans-serif" font-size="13" lengthAdjust="spacing" textLength="177" x="77.5" y="354.5591">Подтверждение деталей</text><polygon fill="#181818" points="244.5,384.7578,234.5,388.7578,244.5,392.7578,240.5,388.7578" style="stroke:#181818;stroke-width:1.0;"/><line style="stroke:#181818;stroke-width:1.0;" x1="238.5" x2="511.5" y1="388.7578" y2="388.7578"/><text fill="#000000" font-family="sans-serif" font-size="13" lengthAdjust="spacing" textLength="233" x="250.5" y="383.6919">Обновление информации о заказе</text><polygon fill="#181818" points="500.5,413.8906,510.5,417.8906,500.5,421.8906,504.5,417.8906" style="stroke:#181818;stroke-width:1.0;"/><line style="stroke:#181818;stroke-width:1.0;stroke-dasharray:2.0,2.0;" x1="233.5" x2="506.5" y1="417.8906" y2="417.8906"/><text fill="#000000" font-family="sans-serif" font-size="13" lengthAdjust="spacing" textLength="198" x="240.5" y="412.8247">Подтверждение обновления</text><line style="stroke:#000000;stroke-width:1.0;stroke-dasharray:2.0,2.0;" x1="30" x2="791" y1="426.8906" y2="426.8906"/><text fill="#000000" font-family="sans-serif" font-size="11" font-weight="bold" lengthAdjust="spacing" textLength="214" x="35" y="437.1011">[Клиент отказывается от заказа]</text><polygon fill="#181818" points="500.5,457.8281,510.5,461.8281,500.5,465.8281,504.5,461.8281" style="stroke:#181818;stroke-width:1.0;"/><line style="stroke:#181818;stroke-width:1.0;stroke-dasharray:2.0,2.0;" x1="70.5" x2="506.5" y1="461.8281" y2="461.8281"/><text fill="#000000" font-family="sans-serif" font-size="13" lengthAdjust="spacing" textLength="113" x="77.5" y="456.7622">Отказ от заказа</text><polygon fill="#181818" points="244.5,486.9609,234.5,490.9609,244.5,494.9609,240.5,490.9609" style="stroke:#181818;stroke-width:1.0;"/><line style="stroke:#181818;stroke-width:1.0;" x1="238.5" x2="511.5" y1="490.9609" y2="490.9609"/><text fill="#000000" font-family="sans-serif" font-size="13" lengthAdjust="spacing" textLength="102" x="250.5" y="485.895">Отмена заказа</text><polygon fill="#181818" points="741.5,516.0938,751.5,520.0938,741.5,524.0938,745.5,520.0938" style="stroke:#181818;stroke-width:1.0;"/><line style="stroke:#181818;stroke-width:1.0;" x1="233.5" x2="747.5" y1="520.0938" y2="520.0938"/><text fill="#000000" font-family="sans-serif" font-size="13" lengthAdjust="spacing" textLength="182" x="240.5" y="515.0278">Остановка приготовления</text><polygon fill="#181818" points="500.5,545.2266,510.5,549.2266,500.5,553.2266,504.5,549.2266" style="stroke:#181818;stroke-width:1.0;"/><line style="stroke:#181818;stroke-width:1.0;stroke-dasharray:2.0,2.0;" x1="233.5" x2="506.5" y1="549.2266" y2="549.2266"/><text fill="#000000" font-family="sans-serif" font-size="13" lengthAdjust="spacing" textLength="170" x="240.5" y="544.1606">Подтверждение отмены</text><line style="stroke:#000000;stroke-width:1.0;stroke-dasharray:2.0,2.0;" x1="20" x2="801" y1="565.2266" y2="565.2266"/><text fill="#000000" font-family="sans-serif" font-size="11" font-weight="bold" lengthAdjust="spacing" textLength="140" x="25" y="575.437">[Клиент не отвечает]</text><polygon fill="#181818" points="244.5,596.1641,234.5,600.1641,244.5,604.1641,240.5,600.1641" style="stroke:#181818;stroke-width:1.0;"/><line style="stroke:#181818;stroke-width:1.0;" x1="238.5" x2="511.5" y1="600.1641" y2="600.1641"/><text fill="#000000" font-family="sans-serif" font-size="13" lengthAdjust="spacing" textLength="255" x="250.5" y="595.0981">Отметка о неудачной попытке связи</text><polygon fill="#181818" points="500.5,625.2969,510.5,629.2969,500.5,633.2969,504.5,629.2969" style="stroke:#181818;stroke-width:1.0;"/><line style="stroke:#181818;stroke-width:1.0;stroke-dasharray:2.0,2.0;" x1="233.5" x2="506.5" y1="629.2969" y2="629.2969"/><text fill="#000000" font-family="sans-serif" font-size="13" lengthAdjust="spacing" textLength="114" x="240.5" y="624.231">Подтверждение</text><path d="M180,651.2969 L250,651.2969 L250,658.4297 L240,668.4297 L180,668.4297 L180,651.2969 " fill="#EEEEEE" style="stroke:#000000;stroke-width:1.5;"/><rect fill="none" height="104.5313" style="stroke:#000000;stroke-width:1.5;" width="611" x="180" y="651.2969"/><text fill="#000000" font-family="sans-serif" font-size="13" font-weight="bold" lengthAdjust="spacing" textLength="25" x="195" y="664.3638">opt</text><text fill="#000000" font-family="sans-serif" font-size="11" font-weight="bold" lengthAdjust="spacing" textLength="325" x="265" y="663.5073">[Превышено максимальное количество попыток]</text><polygon fill="#181818" points="244.5,685.5625,234.5,689.5625,244.5,693.5625,240.5,689.5625" style="stroke:#181818;stroke-width:1.0;"/><line style="stroke:#181818;stroke-width:1.0;" x1="238.5" x2="511.5" y1="689.5625" y2="689.5625"/><text fill="#000000" font-family="sans-serif" font-size="13" lengthAdjust="spacing" textLength="102" x="250.5" y="684.4966">Отмена заказа</text><polygon fill="#181818" points="741.5,714.6953,751.5,718.6953,741.5,722.6953,745.5,718.6953" style="stroke:#181818;stroke-width:1.0;"/><line style="stroke:#181818;stroke-width:1.0;" x1="233.5" x2="747.5" y1="718.6953" y2="718.6953"/><text fill="#000000" font-family="sans-serif" font-size="13" lengthAdjust="spacing" textLength="182" x="240.5" y="713.6294">Остановка приготовления</text><polygon fill="#181818" points="500.5,743.8281,510.5,747.8281,500.5,751.8281,504.5,747.8281" style="stroke:#181818;stroke-width:1.0;"/><line style="stroke:#181818;stroke-width:1.0;stroke-dasharray:2.0,2.0;" x1="233.5" x2="506.5" y1="747.8281" y2="747.8281"/><text fill="#000000" font-family="sans-serif" font-size="13" lengthAdjust="spacing" textLength="170" x="240.5" y="742.7622">Подтверждение отмены</text><!--SRC=[hLLHRjf04FttAVO2lK0-UXUBMArLOX1ObVf7JDka8XAVaV9XMkK2heiR1n9pXPaRzStkshikaAHABR3DxioRDszcbd2GZYQARcXBDLNqo9aAfsemZACa3SRX98q7yJXCKaK_gEPppc3qG8KOJJzDq-Wi20r2JZkgU4O5J1gUYS5Pc8JleaaVveRd_0LnbcBn8Ku7xwCa24n0zUQjHJrHz9qAkaEiYhy9CQ6di53GHcyK4ZZ-6APHIyGy1CC61iWjbN1UKmEWhODf5DuQx67T1wqSQ4lUFWNMiWNiIgSgm0LVG0qDWH-2ZypmmDelw93fA1kUE-0kv-5eD1QeXdQyWEM6QiNdLF9Iu3ZZA-Yzn9B2LbSUeHmeN1unenvuNUkK9BLDpmdnnIKSflrIQuPGI9B0FTDMShNrw8cPM-FC9dZdedMEXrZTwfQuW6LNW5BBzs0Mb7oaqD9Um4MvpAj8HtM7lKz_XzXhosf6ltK9_3IEfhBQS-oehGK1ED8kzpqaBxUkItFwQLl9QwyQx3xB5CYey5VyhdNF-Otc0xUT-rAApTz1UTdXHSDfTA38EYmluA8Lqfqb6_sHUbQtl8LwnlcWLF0r5I-EExeXTjEMssumAM_4VGT9Qc_2zdMGwpJQcxfNoTucm0idTt8Q797ziVKvD61F26GajeTKnNDxoaZszwRbs_EYSkU5cv9_oohmaz2tqHXJjjBpMIBEfRPiP41HCSIhzTkMhpIZIiwPHj86HJF1fLWxcaTEXvUtnNzhYIVQuRMj80hAD_1YjFyWtf89ymS0]--></g></svg>