<svg xmlns="http://www.w3.org/2000/svg" xmlns:xlink="http://www.w3.org/1999/xlink" contentStyleType="text/css" height="973px" preserveAspectRatio="none" style="width:3123px;height:973px;background:#FFFFFF;" version="1.1" viewBox="0 0 3123 973" width="3123px" zoomAndPan="magnify"><defs/><g><ellipse cx="1497.9063" cy="20" fill="#222222" rx="10" ry="10" style="stroke:#222222;stroke-width:1.0;"/><rect fill="#F1F1F1" height="33.9688" rx="12.5" ry="12.5" style="stroke:#181818;stroke-width:0.5;" width="264" x="1365.9063" y="50"/><text fill="#000000" font-family="sans-serif" font-size="12" lengthAdjust="spacing" textLength="244" x="1375.9063" y="71.1387">Курьер прибывает к месту доставки</text><polygon fill="#F1F1F1" points="1450.9063,103.9688,1544.9063,103.9688,1556.9063,115.9688,1544.9063,127.9688,1450.9063,127.9688,1438.9063,115.9688,1450.9063,103.9688" style="stroke:#181818;stroke-width:0.5;"/><text fill="#000000" font-family="sans-serif" font-size="11" lengthAdjust="spacing" textLength="94" x="1450.9063" y="119.7769">Клиент вышел?</text><text fill="#000000" font-family="sans-serif" font-size="11" lengthAdjust="spacing" textLength="17" x="1421.9063" y="113.3745">Да</text><text fill="#000000" font-family="sans-serif" font-size="11" lengthAdjust="spacing" textLength="22" x="1556.9063" y="113.3745">Нет</text><rect fill="#F1F1F1" height="33.9688" rx="12.5" ry="12.5" style="stroke:#181818;stroke-width:0.5;" width="234" x="352.375" y="137.9688"/><text fill="#000000" font-family="sans-serif" font-size="12" lengthAdjust="spacing" textLength="214" x="362.375" y="159.1074">Курьер передает заказ клиенту</text><polygon fill="#F1F1F1" points="349.375,191.9375,589.375,191.9375,601.375,203.9375,589.375,215.9375,349.375,215.9375,337.375,203.9375,349.375,191.9375" style="stroke:#181818;stroke-width:0.5;"/><text fill="#000000" font-family="sans-serif" font-size="11" lengthAdjust="spacing" textLength="240" x="349.375" y="207.7456">Клиент удовлетворен составом заказа?</text><text fill="#000000" font-family="sans-serif" font-size="11" lengthAdjust="spacing" textLength="17" x="320.375" y="201.3433">Да</text><text fill="#000000" font-family="sans-serif" font-size="11" lengthAdjust="spacing" textLength="22" x="601.375" y="201.3433">Нет</text><rect fill="#F1F1F1" height="33.9688" rx="12.5" ry="12.5" style="stroke:#181818;stroke-width:0.5;" width="192" x="19.5" y="225.9375"/><text fill="#000000" font-family="sans-serif" font-size="12" lengthAdjust="spacing" textLength="172" x="29.5" y="247.0762">Клиент оплачивает заказ</text><rect fill="#F1F1F1" height="33.9688" rx="12.5" ry="12.5" style="stroke:#181818;stroke-width:0.5;" width="194" x="18.5" y="294.9063"/><text fill="#000000" font-family="sans-serif" font-size="12" lengthAdjust="spacing" textLength="174" x="28.5" y="316.0449">Курьер принимает оплату</text><rect fill="#F1F1F1" height="33.9688" rx="12.5" ry="12.5" style="stroke:#181818;stroke-width:0.5;" width="209" x="11" y="363.875"/><text fill="#000000" font-family="sans-serif" font-size="12" lengthAdjust="spacing" textLength="189" x="21" y="385.0137">Курьер завершает доставку</text><polygon fill="#F1F1F1" points="760.75,225.9375,945.75,225.9375,957.75,237.9375,945.75,249.9375,760.75,249.9375,748.75,237.9375,760.75,225.9375" style="stroke:#181818;stroke-width:0.5;"/><text fill="#000000" font-family="sans-serif" font-size="11" lengthAdjust="spacing" textLength="185" x="760.75" y="241.7456">Клиент хочет отменить заказ?</text><text fill="#000000" font-family="sans-serif" font-size="11" lengthAdjust="spacing" textLength="17" x="731.75" y="235.3433">Да</text><text fill="#000000" font-family="sans-serif" font-size="11" lengthAdjust="spacing" textLength="22" x="957.75" y="235.3433">Нет</text><rect fill="#F1F1F1" height="33.9688" rx="12.5" ry="12.5" style="stroke:#181818;stroke-width:0.5;" width="330" x="349" y="259.9375"/><text fill="#000000" font-family="sans-serif" font-size="12" lengthAdjust="spacing" textLength="310" x="359" y="281.0762">Курьер принимает решение об отмене заказа</text><polygon fill="#F1F1F1" points="420.5,328.9063,607.5,328.9063,619.5,340.9063,607.5,352.9063,420.5,352.9063,408.5,340.9063,420.5,328.9063" style="stroke:#181818;stroke-width:0.5;"/><text fill="#000000" font-family="sans-serif" font-size="11" lengthAdjust="spacing" textLength="187" x="420.5" y="344.7144">Курьер подтверждает отмену?</text><text fill="#000000" font-family="sans-serif" font-size="11" lengthAdjust="spacing" textLength="17" x="391.5" y="338.312">Да</text><text fill="#000000" font-family="sans-serif" font-size="11" lengthAdjust="spacing" textLength="22" x="619.5" y="338.312">Нет</text><rect fill="#F1F1F1" height="33.9688" rx="12.5" ry="12.5" style="stroke:#181818;stroke-width:0.5;" width="193" x="238" y="362.9063"/><text fill="#000000" font-family="sans-serif" font-size="12" lengthAdjust="spacing" textLength="173" x="248" y="384.0449">Курьер возвращает заказ</text><rect fill="#F1F1F1" height="33.9688" rx="12.5" ry="12.5" style="stroke:#181818;stroke-width:0.5;" width="209" x="230" y="431.875"/><text fill="#000000" font-family="sans-serif" font-size="12" lengthAdjust="spacing" textLength="189" x="240" y="453.0137">Курьер завершает доставку</text><rect fill="#F1F1F1" height="33.9688" rx="12.5" ry="12.5" style="stroke:#181818;stroke-width:0.5;" width="296" x="545.5" y="362.9063"/><text fill="#000000" font-family="sans-serif" font-size="12" lengthAdjust="spacing" textLength="276" x="555.5" y="384.0449">Курьер убеждает клиента принять заказ</text><polygon fill="#F1F1F1" points="595.5,431.875,791.5,431.875,803.5,443.875,791.5,455.875,595.5,455.875,583.5,443.875,595.5,431.875" style="stroke:#181818;stroke-width:0.5;"/><text fill="#000000" font-family="sans-serif" font-size="11" lengthAdjust="spacing" textLength="196" x="595.5" y="447.6831">Клиент согласен принять заказ?</text><text fill="#000000" font-family="sans-serif" font-size="11" lengthAdjust="spacing" textLength="17" x="566.5" y="441.2808">Да</text><text fill="#000000" font-family="sans-serif" font-size="11" lengthAdjust="spacing" textLength="22" x="803.5" y="441.2808">Нет</text><rect fill="#F1F1F1" height="33.9688" rx="12.5" ry="12.5" style="stroke:#181818;stroke-width:0.5;" width="192" x="477.5" y="465.875"/><text fill="#000000" font-family="sans-serif" font-size="12" lengthAdjust="spacing" textLength="172" x="487.5" y="487.0137">Клиент оплачивает заказ</text><rect fill="#F1F1F1" height="33.9688" rx="12.5" ry="12.5" style="stroke:#181818;stroke-width:0.5;" width="194" x="476.5" y="534.8438"/><text fill="#000000" font-family="sans-serif" font-size="12" lengthAdjust="spacing" textLength="174" x="486.5" y="555.9824">Курьер принимает оплату</text><rect fill="#F1F1F1" height="33.9688" rx="12.5" ry="12.5" style="stroke:#181818;stroke-width:0.5;" width="209" x="469" y="603.8125"/><text fill="#000000" font-family="sans-serif" font-size="12" lengthAdjust="spacing" textLength="189" x="479" y="624.9512">Курьер завершает доставку</text><rect fill="#F1F1F1" height="33.9688" rx="12.5" ry="12.5" style="stroke:#181818;stroke-width:0.5;" width="193" x="717" y="465.875"/><text fill="#000000" font-family="sans-serif" font-size="12" lengthAdjust="spacing" textLength="173" x="727" y="487.0137">Курьер возвращает заказ</text><rect fill="#F1F1F1" height="33.9688" rx="12.5" ry="12.5" style="stroke:#181818;stroke-width:0.5;" width="209" x="709" y="534.8438"/><text fill="#000000" font-family="sans-serif" font-size="12" lengthAdjust="spacing" textLength="189" x="719" y="555.9824">Курьер завершает доставку</text><polygon fill="#F1F1F1" points="693.5,643.7813,705.5,655.7813,693.5,667.7813,681.5,655.7813,693.5,643.7813" style="stroke:#181818;stroke-width:0.5;"/><polygon fill="#F1F1F1" points="514,673.7813,526,685.7813,514,697.7813,502,685.7813,514,673.7813" style="stroke:#181818;stroke-width:0.5;"/><rect fill="#F1F1F1" height="33.9688" rx="12.5" ry="12.5" style="stroke:#181818;stroke-width:0.5;" width="296" x="1044.5" y="259.9375"/><text fill="#000000" font-family="sans-serif" font-size="12" lengthAdjust="spacing" textLength="276" x="1054.5" y="281.0762">Курьер убеждает клиента принять заказ</text><polygon fill="#F1F1F1" points="1094.5,328.9063,1290.5,328.9063,1302.5,340.9063,1290.5,352.9063,1094.5,352.9063,1082.5,340.9063,1094.5,328.9063" style="stroke:#181818;stroke-width:0.5;"/><text fill="#000000" font-family="sans-serif" font-size="11" lengthAdjust="spacing" textLength="196" x="1094.5" y="344.7144">Клиент согласен принять заказ?</text><text fill="#000000" font-family="sans-serif" font-size="11" lengthAdjust="spacing" textLength="17" x="1065.5" y="338.312">Да</text><text fill="#000000" font-family="sans-serif" font-size="11" lengthAdjust="spacing" textLength="22" x="1302.5" y="338.312">Нет</text><rect fill="#F1F1F1" height="33.9688" rx="12.5" ry="12.5" style="stroke:#181818;stroke-width:0.5;" width="192" x="976.5" y="362.9063"/><text fill="#000000" font-family="sans-serif" font-size="12" lengthAdjust="spacing" textLength="172" x="986.5" y="384.0449">Клиент оплачивает заказ</text><rect fill="#F1F1F1" height="33.9688" rx="12.5" ry="12.5" style="stroke:#181818;stroke-width:0.5;" width="194" x="975.5" y="431.875"/><text fill="#000000" font-family="sans-serif" font-size="12" lengthAdjust="spacing" textLength="174" x="985.5" y="453.0137">Курьер принимает оплату</text><rect fill="#F1F1F1" height="33.9688" rx="12.5" ry="12.5" style="stroke:#181818;stroke-width:0.5;" width="209" x="968" y="500.8438"/><text fill="#000000" font-family="sans-serif" font-size="12" lengthAdjust="spacing" textLength="189" x="978" y="521.9824">Курьер завершает доставку</text><rect fill="#F1F1F1" height="33.9688" rx="12.5" ry="12.5" style="stroke:#181818;stroke-width:0.5;" width="193" x="1216" y="362.9063"/><text fill="#000000" font-family="sans-serif" font-size="12" lengthAdjust="spacing" textLength="173" x="1226" y="384.0449">Курьер возвращает заказ</text><rect fill="#F1F1F1" height="33.9688" rx="12.5" ry="12.5" style="stroke:#181818;stroke-width:0.5;" width="209" x="1208" y="431.875"/><text fill="#000000" font-family="sans-serif" font-size="12" lengthAdjust="spacing" textLength="189" x="1218" y="453.0137">Курьер завершает доставку</text><polygon fill="#F1F1F1" points="1192.5,540.8125,1204.5,552.8125,1192.5,564.8125,1180.5,552.8125,1192.5,540.8125" style="stroke:#181818;stroke-width:0.5;"/><polygon fill="#F1F1F1" points="853.25,703.7813,865.25,715.7813,853.25,727.7813,841.25,715.7813,853.25,703.7813" style="stroke:#181818;stroke-width:0.5;"/><polygon fill="#F1F1F1" points="469.375,733.7813,481.375,745.7813,469.375,757.7813,457.375,745.7813,469.375,733.7813" style="stroke:#181818;stroke-width:0.5;"/><rect fill="#F1F1F1" height="33.9688" rx="12.5" ry="12.5" style="stroke:#181818;stroke-width:0.5;" width="250" x="2371.4375" y="137.9688"/><text fill="#000000" font-family="sans-serif" font-size="12" lengthAdjust="spacing" textLength="230" x="2381.4375" y="159.1074">Курьер ожидает некоторое время</text><polygon fill="#F1F1F1" points="2449.4375,191.9375,2543.4375,191.9375,2555.4375,203.9375,2543.4375,215.9375,2449.4375,215.9375,2437.4375,203.9375,2449.4375,191.9375" style="stroke:#181818;stroke-width:0.5;"/><text fill="#000000" font-family="sans-serif" font-size="11" lengthAdjust="spacing" textLength="94" x="2449.4375" y="207.7456">Клиент вышел?</text><text fill="#000000" font-family="sans-serif" font-size="11" lengthAdjust="spacing" textLength="17" x="2420.4375" y="201.3433">Да</text><text fill="#000000" font-family="sans-serif" font-size="11" lengthAdjust="spacing" textLength="22" x="2555.4375" y="201.3433">Нет</text><rect fill="#F1F1F1" height="33.9688" rx="12.5" ry="12.5" style="stroke:#181818;stroke-width:0.5;" width="234" x="1828.375" y="225.9375"/><text fill="#000000" font-family="sans-serif" font-size="12" lengthAdjust="spacing" textLength="214" x="1838.375" y="247.0762">Курьер передает заказ клиенту</text><polygon fill="#F1F1F1" points="1825.375,294.9063,2065.375,294.9063,2077.375,306.9063,2065.375,318.9063,1825.375,318.9063,1813.375,306.9063,1825.375,294.9063" style="stroke:#181818;stroke-width:0.5;"/><text fill="#000000" font-family="sans-serif" font-size="11" lengthAdjust="spacing" textLength="240" x="1825.375" y="310.7144">Клиент удовлетворен составом заказа?</text><text fill="#000000" font-family="sans-serif" font-size="11" lengthAdjust="spacing" textLength="17" x="1796.375" y="304.312">Да</text><text fill="#000000" font-family="sans-serif" font-size="11" lengthAdjust="spacing" textLength="22" x="2077.375" y="304.312">Нет</text><rect fill="#F1F1F1" height="33.9688" rx="12.5" ry="12.5" style="stroke:#181818;stroke-width:0.5;" width="192" x="1495.5" y="328.9063"/><text fill="#000000" font-family="sans-serif" font-size="12" lengthAdjust="spacing" textLength="172" x="1505.5" y="350.0449">Клиент оплачивает заказ</text><rect fill="#F1F1F1" height="33.9688" rx="12.5" ry="12.5" style="stroke:#181818;stroke-width:0.5;" width="194" x="1494.5" y="397.875"/><text fill="#000000" font-family="sans-serif" font-size="12" lengthAdjust="spacing" textLength="174" x="1504.5" y="419.0137">Курьер принимает оплату</text><rect fill="#F1F1F1" height="33.9688" rx="12.5" ry="12.5" style="stroke:#181818;stroke-width:0.5;" width="209" x="1487" y="466.8438"/><text fill="#000000" font-family="sans-serif" font-size="12" lengthAdjust="spacing" textLength="189" x="1497" y="487.9824">Курьер завершает доставку</text><polygon fill="#F1F1F1" points="2236.75,328.9063,2421.75,328.9063,2433.75,340.9063,2421.75,352.9063,2236.75,352.9063,2224.75,340.9063,2236.75,328.9063" style="stroke:#181818;stroke-width:0.5;"/><text fill="#000000" font-family="sans-serif" font-size="11" lengthAdjust="spacing" textLength="185" x="2236.75" y="344.7144">Клиент хочет отменить заказ?</text><text fill="#000000" font-family="sans-serif" font-size="11" lengthAdjust="spacing" textLength="17" x="2207.75" y="338.312">Да</text><text fill="#000000" font-family="sans-serif" font-size="11" lengthAdjust="spacing" textLength="22" x="2433.75" y="338.312">Нет</text><rect fill="#F1F1F1" height="33.9688" rx="12.5" ry="12.5" style="stroke:#181818;stroke-width:0.5;" width="330" x="1825" y="362.9063"/><text fill="#000000" font-family="sans-serif" font-size="12" lengthAdjust="spacing" textLength="310" x="1835" y="384.0449">Курьер принимает решение об отмене заказа</text><polygon fill="#F1F1F1" points="1896.5,431.875,2083.5,431.875,2095.5,443.875,2083.5,455.875,1896.5,455.875,1884.5,443.875,1896.5,431.875" style="stroke:#181818;stroke-width:0.5;"/><text fill="#000000" font-family="sans-serif" font-size="11" lengthAdjust="spacing" textLength="187" x="1896.5" y="447.6831">Курьер подтверждает отмену?</text><text fill="#000000" font-family="sans-serif" font-size="11" lengthAdjust="spacing" textLength="17" x="1867.5" y="441.2808">Да</text><text fill="#000000" font-family="sans-serif" font-size="11" lengthAdjust="spacing" textLength="22" x="2095.5" y="441.2808">Нет</text><rect fill="#F1F1F1" height="33.9688" rx="12.5" ry="12.5" style="stroke:#181818;stroke-width:0.5;" width="193" x="1714" y="465.875"/><text fill="#000000" font-family="sans-serif" font-size="12" lengthAdjust="spacing" textLength="173" x="1724" y="487.0137">Курьер возвращает заказ</text><rect fill="#F1F1F1" height="33.9688" rx="12.5" ry="12.5" style="stroke:#181818;stroke-width:0.5;" width="209" x="1706" y="534.8438"/><text fill="#000000" font-family="sans-serif" font-size="12" lengthAdjust="spacing" textLength="189" x="1716" y="555.9824">Курьер завершает доставку</text><rect fill="#F1F1F1" height="33.9688" rx="12.5" ry="12.5" style="stroke:#181818;stroke-width:0.5;" width="296" x="2021.5" y="465.875"/><text fill="#000000" font-family="sans-serif" font-size="12" lengthAdjust="spacing" textLength="276" x="2031.5" y="487.0137">Курьер убеждает клиента принять заказ</text><polygon fill="#F1F1F1" points="2071.5,534.8438,2267.5,534.8438,2279.5,546.8438,2267.5,558.8438,2071.5,558.8438,2059.5,546.8438,2071.5,534.8438" style="stroke:#181818;stroke-width:0.5;"/><text fill="#000000" font-family="sans-serif" font-size="11" lengthAdjust="spacing" textLength="196" x="2071.5" y="550.6519">Клиент согласен принять заказ?</text><text fill="#000000" font-family="sans-serif" font-size="11" lengthAdjust="spacing" textLength="17" x="2042.5" y="544.2495">Да</text><text fill="#000000" font-family="sans-serif" font-size="11" lengthAdjust="spacing" textLength="22" x="2279.5" y="544.2495">Нет</text><rect fill="#F1F1F1" height="33.9688" rx="12.5" ry="12.5" style="stroke:#181818;stroke-width:0.5;" width="192" x="1953.5" y="568.8438"/><text fill="#000000" font-family="sans-serif" font-size="12" lengthAdjust="spacing" textLength="172" x="1963.5" y="589.9824">Клиент оплачивает заказ</text><rect fill="#F1F1F1" height="33.9688" rx="12.5" ry="12.5" style="stroke:#181818;stroke-width:0.5;" width="194" x="1952.5" y="637.8125"/><text fill="#000000" font-family="sans-serif" font-size="12" lengthAdjust="spacing" textLength="174" x="1962.5" y="658.9512">Курьер принимает оплату</text><rect fill="#F1F1F1" height="33.9688" rx="12.5" ry="12.5" style="stroke:#181818;stroke-width:0.5;" width="209" x="1945" y="706.7813"/><text fill="#000000" font-family="sans-serif" font-size="12" lengthAdjust="spacing" textLength="189" x="1955" y="727.9199">Курьер завершает доставку</text><rect fill="#F1F1F1" height="33.9688" rx="12.5" ry="12.5" style="stroke:#181818;stroke-width:0.5;" width="193" x="2193" y="568.8438"/><text fill="#000000" font-family="sans-serif" font-size="12" lengthAdjust="spacing" textLength="173" x="2203" y="589.9824">Курьер возвращает заказ</text><rect fill="#F1F1F1" height="33.9688" rx="12.5" ry="12.5" style="stroke:#181818;stroke-width:0.5;" width="209" x="2185" y="637.8125"/><text fill="#000000" font-family="sans-serif" font-size="12" lengthAdjust="spacing" textLength="189" x="2195" y="658.9512">Курьер завершает доставку</text><polygon fill="#F1F1F1" points="2169.5,746.75,2181.5,758.75,2169.5,770.75,2157.5,758.75,2169.5,746.75" style="stroke:#181818;stroke-width:0.5;"/><polygon fill="#F1F1F1" points="1990,776.75,2002,788.75,1990,800.75,1978,788.75,1990,776.75" style="stroke:#181818;stroke-width:0.5;"/><rect fill="#F1F1F1" height="33.9688" rx="12.5" ry="12.5" style="stroke:#181818;stroke-width:0.5;" width="296" x="2520.5" y="362.9063"/><text fill="#000000" font-family="sans-serif" font-size="12" lengthAdjust="spacing" textLength="276" x="2530.5" y="384.0449">Курьер убеждает клиента принять заказ</text><polygon fill="#F1F1F1" points="2570.5,431.875,2766.5,431.875,2778.5,443.875,2766.5,455.875,2570.5,455.875,2558.5,443.875,2570.5,431.875" style="stroke:#181818;stroke-width:0.5;"/><text fill="#000000" font-family="sans-serif" font-size="11" lengthAdjust="spacing" textLength="196" x="2570.5" y="447.6831">Клиент согласен принять заказ?</text><text fill="#000000" font-family="sans-serif" font-size="11" lengthAdjust="spacing" textLength="17" x="2541.5" y="441.2808">Да</text><text fill="#000000" font-family="sans-serif" font-size="11" lengthAdjust="spacing" textLength="22" x="2778.5" y="441.2808">Нет</text><rect fill="#F1F1F1" height="33.9688" rx="12.5" ry="12.5" style="stroke:#181818;stroke-width:0.5;" width="192" x="2452.5" y="465.875"/><text fill="#000000" font-family="sans-serif" font-size="12" lengthAdjust="spacing" textLength="172" x="2462.5" y="487.0137">Клиент оплачивает заказ</text><rect fill="#F1F1F1" height="33.9688" rx="12.5" ry="12.5" style="stroke:#181818;stroke-width:0.5;" width="194" x="2451.5" y="534.8438"/><text fill="#000000" font-family="sans-serif" font-size="12" lengthAdjust="spacing" textLength="174" x="2461.5" y="555.9824">Курьер принимает оплату</text><rect fill="#F1F1F1" height="33.9688" rx="12.5" ry="12.5" style="stroke:#181818;stroke-width:0.5;" width="209" x="2444" y="603.8125"/><text fill="#000000" font-family="sans-serif" font-size="12" lengthAdjust="spacing" textLength="189" x="2454" y="624.9512">Курьер завершает доставку</text><rect fill="#F1F1F1" height="33.9688" rx="12.5" ry="12.5" style="stroke:#181818;stroke-width:0.5;" width="193" x="2692" y="465.875"/><text fill="#000000" font-family="sans-serif" font-size="12" lengthAdjust="spacing" textLength="173" x="2702" y="487.0137">Курьер возвращает заказ</text><rect fill="#F1F1F1" height="33.9688" rx="12.5" ry="12.5" style="stroke:#181818;stroke-width:0.5;" width="209" x="2684" y="534.8438"/><text fill="#000000" font-family="sans-serif" font-size="12" lengthAdjust="spacing" textLength="189" x="2694" y="555.9824">Курьер завершает доставку</text><polygon fill="#F1F1F1" points="2668.5,643.7813,2680.5,655.7813,2668.5,667.7813,2656.5,655.7813,2668.5,643.7813" style="stroke:#181818;stroke-width:0.5;"/><polygon fill="#F1F1F1" points="2329.25,806.75,2341.25,818.75,2329.25,830.75,2317.25,818.75,2329.25,806.75" style="stroke:#181818;stroke-width:0.5;"/><polygon fill="#F1F1F1" points="1945.375,836.75,1957.375,848.75,1945.375,860.75,1933.375,848.75,1945.375,836.75" style="stroke:#181818;stroke-width:0.5;"/><rect fill="#F1F1F1" height="33.9688" rx="12.5" ry="12.5" style="stroke:#181818;stroke-width:0.5;" width="193" x="2911" y="225.9375"/><text fill="#000000" font-family="sans-serif" font-size="12" lengthAdjust="spacing" textLength="173" x="2921" y="247.0762">Курьер возвращает заказ</text><rect fill="#F1F1F1" height="33.9688" rx="12.5" ry="12.5" style="stroke:#181818;stroke-width:0.5;" width="209" x="2903" y="294.9063"/><text fill="#000000" font-family="sans-serif" font-size="12" lengthAdjust="spacing" textLength="189" x="2913" y="316.0449">Курьер завершает доставку</text><polygon fill="#F1F1F1" points="2496.4375,866.75,2508.4375,878.75,2496.4375,890.75,2484.4375,878.75,2496.4375,866.75" style="stroke:#181818;stroke-width:0.5;"/><polygon fill="#F1F1F1" points="1497.9063,896.75,1509.9063,908.75,1497.9063,920.75,1485.9063,908.75,1497.9063,896.75" style="stroke:#181818;stroke-width:0.5;"/><ellipse cx="1497.9063" cy="951.75" fill="none" rx="11" ry="11" style="stroke:#222222;stroke-width:1.0;"/><ellipse cx="1497.9063" cy="951.75" fill="#222222" rx="6" ry="6" style="stroke:#222222;stroke-width:1.0;"/><line style="stroke:#181818;stroke-width:1.0;" x1="1497.9063" x2="1497.9063" y1="30" y2="50"/><polygon fill="#181818" points="1493.9063,40,1497.9063,50,1501.9063,40,1497.9063,44" style="stroke:#181818;stroke-width:1.0;"/><line style="stroke:#181818;stroke-width:1.0;" x1="115.5" x2="115.5" y1="259.9063" y2="294.9063"/><polygon fill="#181818" points="111.5,284.9063,115.5,294.9063,119.5,284.9063,115.5,288.9063" style="stroke:#181818;stroke-width:1.0;"/><line style="stroke:#181818;stroke-width:1.0;" x1="115.5" x2="115.5" y1="328.875" y2="363.875"/><polygon fill="#181818" points="111.5,353.875,115.5,363.875,119.5,353.875,115.5,357.875" style="stroke:#181818;stroke-width:1.0;"/><line style="stroke:#181818;stroke-width:1.0;" x1="334.5" x2="334.5" y1="396.875" y2="431.875"/><polygon fill="#181818" points="330.5,421.875,334.5,431.875,338.5,421.875,334.5,425.875" style="stroke:#181818;stroke-width:1.0;"/><line style="stroke:#181818;stroke-width:1.0;" x1="573.5" x2="573.5" y1="499.8438" y2="534.8438"/><polygon fill="#181818" points="569.5,524.8438,573.5,534.8438,577.5,524.8438,573.5,528.8438" style="stroke:#181818;stroke-width:1.0;"/><line style="stroke:#181818;stroke-width:1.0;" x1="573.5" x2="573.5" y1="568.8125" y2="603.8125"/><polygon fill="#181818" points="569.5,593.8125,573.5,603.8125,577.5,593.8125,573.5,597.8125" style="stroke:#181818;stroke-width:1.0;"/><line style="stroke:#181818;stroke-width:1.0;" x1="813.5" x2="813.5" y1="499.8438" y2="534.8438"/><polygon fill="#181818" points="809.5,524.8438,813.5,534.8438,817.5,524.8438,813.5,528.8438" style="stroke:#181818;stroke-width:1.0;"/><line style="stroke:#181818;stroke-width:1.0;" x1="583.5" x2="573.5" y1="443.875" y2="443.875"/><line style="stroke:#181818;stroke-width:1.0;" x1="573.5" x2="573.5" y1="443.875" y2="465.875"/><polygon fill="#181818" points="569.5,455.875,573.5,465.875,577.5,455.875,573.5,459.875" style="stroke:#181818;stroke-width:1.0;"/><line style="stroke:#181818;stroke-width:1.0;" x1="803.5" x2="813.5" y1="443.875" y2="443.875"/><line style="stroke:#181818;stroke-width:1.0;" x1="813.5" x2="813.5" y1="443.875" y2="465.875"/><polygon fill="#181818" points="809.5,455.875,813.5,465.875,817.5,455.875,813.5,459.875" style="stroke:#181818;stroke-width:1.0;"/><line style="stroke:#181818;stroke-width:1.0;" x1="573.5" x2="573.5" y1="637.7813" y2="655.7813"/><line style="stroke:#181818;stroke-width:1.0;" x1="573.5" x2="681.5" y1="655.7813" y2="655.7813"/><polygon fill="#181818" points="671.5,651.7813,681.5,655.7813,671.5,659.7813,675.5,655.7813" style="stroke:#181818;stroke-width:1.0;"/><line style="stroke:#181818;stroke-width:1.0;" x1="813.5" x2="813.5" y1="568.8125" y2="655.7813"/><line style="stroke:#181818;stroke-width:1.0;" x1="813.5" x2="705.5" y1="655.7813" y2="655.7813"/><polygon fill="#181818" points="715.5,651.7813,705.5,655.7813,715.5,659.7813,711.5,655.7813" style="stroke:#181818;stroke-width:1.0;"/><line style="stroke:#181818;stroke-width:1.0;" x1="693.5" x2="693.5" y1="396.875" y2="431.875"/><polygon fill="#181818" points="689.5,421.875,693.5,431.875,697.5,421.875,693.5,425.875" style="stroke:#181818;stroke-width:1.0;"/><line style="stroke:#181818;stroke-width:1.0;" x1="408.5" x2="334.5" y1="340.9063" y2="340.9063"/><line style="stroke:#181818;stroke-width:1.0;" x1="334.5" x2="334.5" y1="340.9063" y2="362.9063"/><polygon fill="#181818" points="330.5,352.9063,334.5,362.9063,338.5,352.9063,334.5,356.9063" style="stroke:#181818;stroke-width:1.0;"/><line style="stroke:#181818;stroke-width:1.0;" x1="619.5" x2="693.5" y1="340.9063" y2="340.9063"/><line style="stroke:#181818;stroke-width:1.0;" x1="693.5" x2="693.5" y1="340.9063" y2="362.9063"/><polygon fill="#181818" points="689.5,352.9063,693.5,362.9063,697.5,352.9063,693.5,356.9063" style="stroke:#181818;stroke-width:1.0;"/><line style="stroke:#181818;stroke-width:1.0;" x1="334.5" x2="334.5" y1="465.8438" y2="685.7813"/><line style="stroke:#181818;stroke-width:1.0;" x1="334.5" x2="502" y1="685.7813" y2="685.7813"/><polygon fill="#181818" points="492,681.7813,502,685.7813,492,689.7813,496,685.7813" style="stroke:#181818;stroke-width:1.0;"/><line style="stroke:#181818;stroke-width:1.0;" x1="693.5" x2="693.5" y1="667.7813" y2="685.7813"/><line style="stroke:#181818;stroke-width:1.0;" x1="693.5" x2="526" y1="685.7813" y2="685.7813"/><polygon fill="#181818" points="536,681.7813,526,685.7813,536,689.7813,532,685.7813" style="stroke:#181818;stroke-width:1.0;"/><line style="stroke:#181818;stroke-width:1.0;" x1="514" x2="514" y1="293.9063" y2="328.9063"/><polygon fill="#181818" points="510,318.9063,514,328.9063,518,318.9063,514,322.9063" style="stroke:#181818;stroke-width:1.0;"/><line style="stroke:#181818;stroke-width:1.0;" x1="1072.5" x2="1072.5" y1="396.875" y2="431.875"/><polygon fill="#181818" points="1068.5,421.875,1072.5,431.875,1076.5,421.875,1072.5,425.875" style="stroke:#181818;stroke-width:1.0;"/><line style="stroke:#181818;stroke-width:1.0;" x1="1072.5" x2="1072.5" y1="465.8438" y2="500.8438"/><polygon fill="#181818" points="1068.5,490.8438,1072.5,500.8438,1076.5,490.8438,1072.5,494.8438" style="stroke:#181818;stroke-width:1.0;"/><line style="stroke:#181818;stroke-width:1.0;" x1="1312.5" x2="1312.5" y1="396.875" y2="431.875"/><polygon fill="#181818" points="1308.5,421.875,1312.5,431.875,1316.5,421.875,1312.5,425.875" style="stroke:#181818;stroke-width:1.0;"/><line style="stroke:#181818;stroke-width:1.0;" x1="1082.5" x2="1072.5" y1="340.9063" y2="340.9063"/><line style="stroke:#181818;stroke-width:1.0;" x1="1072.5" x2="1072.5" y1="340.9063" y2="362.9063"/><polygon fill="#181818" points="1068.5,352.9063,1072.5,362.9063,1076.5,352.9063,1072.5,356.9063" style="stroke:#181818;stroke-width:1.0;"/><line style="stroke:#181818;stroke-width:1.0;" x1="1302.5" x2="1312.5" y1="340.9063" y2="340.9063"/><line style="stroke:#181818;stroke-width:1.0;" x1="1312.5" x2="1312.5" y1="340.9063" y2="362.9063"/><polygon fill="#181818" points="1308.5,352.9063,1312.5,362.9063,1316.5,352.9063,1312.5,356.9063" style="stroke:#181818;stroke-width:1.0;"/><line style="stroke:#181818;stroke-width:1.0;" x1="1072.5" x2="1072.5" y1="534.8125" y2="552.8125"/><line style="stroke:#181818;stroke-width:1.0;" x1="1072.5" x2="1180.5" y1="552.8125" y2="552.8125"/><polygon fill="#181818" points="1170.5,548.8125,1180.5,552.8125,1170.5,556.8125,1174.5,552.8125" style="stroke:#181818;stroke-width:1.0;"/><line style="stroke:#181818;stroke-width:1.0;" x1="1312.5" x2="1312.5" y1="465.8438" y2="552.8125"/><line style="stroke:#181818;stroke-width:1.0;" x1="1312.5" x2="1204.5" y1="552.8125" y2="552.8125"/><polygon fill="#181818" points="1214.5,548.8125,1204.5,552.8125,1214.5,556.8125,1210.5,552.8125" style="stroke:#181818;stroke-width:1.0;"/><line style="stroke:#181818;stroke-width:1.0;" x1="1192.5" x2="1192.5" y1="293.9063" y2="328.9063"/><polygon fill="#181818" points="1188.5,318.9063,1192.5,328.9063,1196.5,318.9063,1192.5,322.9063" style="stroke:#181818;stroke-width:1.0;"/><line style="stroke:#181818;stroke-width:1.0;" x1="748.75" x2="514" y1="237.9375" y2="237.9375"/><line style="stroke:#181818;stroke-width:1.0;" x1="514" x2="514" y1="237.9375" y2="259.9375"/><polygon fill="#181818" points="510,249.9375,514,259.9375,518,249.9375,514,253.9375" style="stroke:#181818;stroke-width:1.0;"/><line style="stroke:#181818;stroke-width:1.0;" x1="957.75" x2="1192.5" y1="237.9375" y2="237.9375"/><line style="stroke:#181818;stroke-width:1.0;" x1="1192.5" x2="1192.5" y1="237.9375" y2="259.9375"/><polygon fill="#181818" points="1188.5,249.9375,1192.5,259.9375,1196.5,249.9375,1192.5,253.9375" style="stroke:#181818;stroke-width:1.0;"/><line style="stroke:#181818;stroke-width:1.0;" x1="514" x2="514" y1="697.7813" y2="715.7813"/><line style="stroke:#181818;stroke-width:1.0;" x1="514" x2="841.25" y1="715.7813" y2="715.7813"/><polygon fill="#181818" points="831.25,711.7813,841.25,715.7813,831.25,719.7813,835.25,715.7813" style="stroke:#181818;stroke-width:1.0;"/><line style="stroke:#181818;stroke-width:1.0;" x1="1192.5" x2="1192.5" y1="564.8125" y2="715.7813"/><line style="stroke:#181818;stroke-width:1.0;" x1="1192.5" x2="865.25" y1="715.7813" y2="715.7813"/><polygon fill="#181818" points="875.25,711.7813,865.25,715.7813,875.25,719.7813,871.25,715.7813" style="stroke:#181818;stroke-width:1.0;"/><line style="stroke:#181818;stroke-width:1.0;" x1="337.375" x2="115.5" y1="203.9375" y2="203.9375"/><line style="stroke:#181818;stroke-width:1.0;" x1="115.5" x2="115.5" y1="203.9375" y2="225.9375"/><polygon fill="#181818" points="111.5,215.9375,115.5,225.9375,119.5,215.9375,115.5,219.9375" style="stroke:#181818;stroke-width:1.0;"/><line style="stroke:#181818;stroke-width:1.0;" x1="601.375" x2="853.25" y1="203.9375" y2="203.9375"/><line style="stroke:#181818;stroke-width:1.0;" x1="853.25" x2="853.25" y1="203.9375" y2="225.9375"/><polygon fill="#181818" points="849.25,215.9375,853.25,225.9375,857.25,215.9375,853.25,219.9375" style="stroke:#181818;stroke-width:1.0;"/><line style="stroke:#181818;stroke-width:1.0;" x1="115.5" x2="115.5" y1="397.8438" y2="745.7813"/><line style="stroke:#181818;stroke-width:1.0;" x1="115.5" x2="457.375" y1="745.7813" y2="745.7813"/><polygon fill="#181818" points="447.375,741.7813,457.375,745.7813,447.375,749.7813,451.375,745.7813" style="stroke:#181818;stroke-width:1.0;"/><line style="stroke:#181818;stroke-width:1.0;" x1="853.25" x2="853.25" y1="727.7813" y2="745.7813"/><line style="stroke:#181818;stroke-width:1.0;" x1="853.25" x2="481.375" y1="745.7813" y2="745.7813"/><polygon fill="#181818" points="491.375,741.7813,481.375,745.7813,491.375,749.7813,487.375,745.7813" style="stroke:#181818;stroke-width:1.0;"/><line style="stroke:#181818;stroke-width:1.0;" x1="469.375" x2="469.375" y1="171.9375" y2="191.9375"/><polygon fill="#181818" points="465.375,181.9375,469.375,191.9375,473.375,181.9375,469.375,185.9375" style="stroke:#181818;stroke-width:1.0;"/><line style="stroke:#181818;stroke-width:1.0;" x1="1591.5" x2="1591.5" y1="362.875" y2="397.875"/><polygon fill="#181818" points="1587.5,387.875,1591.5,397.875,1595.5,387.875,1591.5,391.875" style="stroke:#181818;stroke-width:1.0;"/><line style="stroke:#181818;stroke-width:1.0;" x1="1591.5" x2="1591.5" y1="431.8438" y2="466.8438"/><polygon fill="#181818" points="1587.5,456.8438,1591.5,466.8438,1595.5,456.8438,1591.5,460.8438" style="stroke:#181818;stroke-width:1.0;"/><line style="stroke:#181818;stroke-width:1.0;" x1="1810.5" x2="1810.5" y1="499.8438" y2="534.8438"/><polygon fill="#181818" points="1806.5,524.8438,1810.5,534.8438,1814.5,524.8438,1810.5,528.8438" style="stroke:#181818;stroke-width:1.0;"/><line style="stroke:#181818;stroke-width:1.0;" x1="2049.5" x2="2049.5" y1="602.8125" y2="637.8125"/><polygon fill="#181818" points="2045.5,627.8125,2049.5,637.8125,2053.5,627.8125,2049.5,631.8125" style="stroke:#181818;stroke-width:1.0;"/><line style="stroke:#181818;stroke-width:1.0;" x1="2049.5" x2="2049.5" y1="671.7813" y2="706.7813"/><polygon fill="#181818" points="2045.5,696.7813,2049.5,706.7813,2053.5,696.7813,2049.5,700.7813" style="stroke:#181818;stroke-width:1.0;"/><line style="stroke:#181818;stroke-width:1.0;" x1="2289.5" x2="2289.5" y1="602.8125" y2="637.8125"/><polygon fill="#181818" points="2285.5,627.8125,2289.5,637.8125,2293.5,627.8125,2289.5,631.8125" style="stroke:#181818;stroke-width:1.0;"/><line style="stroke:#181818;stroke-width:1.0;" x1="2059.5" x2="2049.5" y1="546.8438" y2="546.8438"/><line style="stroke:#181818;stroke-width:1.0;" x1="2049.5" x2="2049.5" y1="546.8438" y2="568.8438"/><polygon fill="#181818" points="2045.5,558.8438,2049.5,568.8438,2053.5,558.8438,2049.5,562.8438" style="stroke:#181818;stroke-width:1.0;"/><line style="stroke:#181818;stroke-width:1.0;" x1="2279.5" x2="2289.5" y1="546.8438" y2="546.8438"/><line style="stroke:#181818;stroke-width:1.0;" x1="2289.5" x2="2289.5" y1="546.8438" y2="568.8438"/><polygon fill="#181818" points="2285.5,558.8438,2289.5,568.8438,2293.5,558.8438,2289.5,562.8438" style="stroke:#181818;stroke-width:1.0;"/><line style="stroke:#181818;stroke-width:1.0;" x1="2049.5" x2="2049.5" y1="740.75" y2="758.75"/><line style="stroke:#181818;stroke-width:1.0;" x1="2049.5" x2="2157.5" y1="758.75" y2="758.75"/><polygon fill="#181818" points="2147.5,754.75,2157.5,758.75,2147.5,762.75,2151.5,758.75" style="stroke:#181818;stroke-width:1.0;"/><line style="stroke:#181818;stroke-width:1.0;" x1="2289.5" x2="2289.5" y1="671.7813" y2="758.75"/><line style="stroke:#181818;stroke-width:1.0;" x1="2289.5" x2="2181.5" y1="758.75" y2="758.75"/><polygon fill="#181818" points="2191.5,754.75,2181.5,758.75,2191.5,762.75,2187.5,758.75" style="stroke:#181818;stroke-width:1.0;"/><line style="stroke:#181818;stroke-width:1.0;" x1="2169.5" x2="2169.5" y1="499.8438" y2="534.8438"/><polygon fill="#181818" points="2165.5,524.8438,2169.5,534.8438,2173.5,524.8438,2169.5,528.8438" style="stroke:#181818;stroke-width:1.0;"/><line style="stroke:#181818;stroke-width:1.0;" x1="1884.5" x2="1810.5" y1="443.875" y2="443.875"/><line style="stroke:#181818;stroke-width:1.0;" x1="1810.5" x2="1810.5" y1="443.875" y2="465.875"/><polygon fill="#181818" points="1806.5,455.875,1810.5,465.875,1814.5,455.875,1810.5,459.875" style="stroke:#181818;stroke-width:1.0;"/><line style="stroke:#181818;stroke-width:1.0;" x1="2095.5" x2="2169.5" y1="443.875" y2="443.875"/><line style="stroke:#181818;stroke-width:1.0;" x1="2169.5" x2="2169.5" y1="443.875" y2="465.875"/><polygon fill="#181818" points="2165.5,455.875,2169.5,465.875,2173.5,455.875,2169.5,459.875" style="stroke:#181818;stroke-width:1.0;"/><line style="stroke:#181818;stroke-width:1.0;" x1="1810.5" x2="1810.5" y1="568.8125" y2="788.75"/><line style="stroke:#181818;stroke-width:1.0;" x1="1810.5" x2="1978" y1="788.75" y2="788.75"/><polygon fill="#181818" points="1968,784.75,1978,788.75,1968,792.75,1972,788.75" style="stroke:#181818;stroke-width:1.0;"/><line style="stroke:#181818;stroke-width:1.0;" x1="2169.5" x2="2169.5" y1="770.75" y2="788.75"/><line style="stroke:#181818;stroke-width:1.0;" x1="2169.5" x2="2002" y1="788.75" y2="788.75"/><polygon fill="#181818" points="2012,784.75,2002,788.75,2012,792.75,2008,788.75" style="stroke:#181818;stroke-width:1.0;"/><line style="stroke:#181818;stroke-width:1.0;" x1="1990" x2="1990" y1="396.875" y2="431.875"/><polygon fill="#181818" points="1986,421.875,1990,431.875,1994,421.875,1990,425.875" style="stroke:#181818;stroke-width:1.0;"/><line style="stroke:#181818;stroke-width:1.0;" x1="2548.5" x2="2548.5" y1="499.8438" y2="534.8438"/><polygon fill="#181818" points="2544.5,524.8438,2548.5,534.8438,2552.5,524.8438,2548.5,528.8438" style="stroke:#181818;stroke-width:1.0;"/><line style="stroke:#181818;stroke-width:1.0;" x1="2548.5" x2="2548.5" y1="568.8125" y2="603.8125"/><polygon fill="#181818" points="2544.5,593.8125,2548.5,603.8125,2552.5,593.8125,2548.5,597.8125" style="stroke:#181818;stroke-width:1.0;"/><line style="stroke:#181818;stroke-width:1.0;" x1="2788.5" x2="2788.5" y1="499.8438" y2="534.8438"/><polygon fill="#181818" points="2784.5,524.8438,2788.5,534.8438,2792.5,524.8438,2788.5,528.8438" style="stroke:#181818;stroke-width:1.0;"/><line style="stroke:#181818;stroke-width:1.0;" x1="2558.5" x2="2548.5" y1="443.875" y2="443.875"/><line style="stroke:#181818;stroke-width:1.0;" x1="2548.5" x2="2548.5" y1="443.875" y2="465.875"/><polygon fill="#181818" points="2544.5,455.875,2548.5,465.875,2552.5,455.875,2548.5,459.875" style="stroke:#181818;stroke-width:1.0;"/><line style="stroke:#181818;stroke-width:1.0;" x1="2778.5" x2="2788.5" y1="443.875" y2="443.875"/><line style="stroke:#181818;stroke-width:1.0;" x1="2788.5" x2="2788.5" y1="443.875" y2="465.875"/><polygon fill="#181818" points="2784.5,455.875,2788.5,465.875,2792.5,455.875,2788.5,459.875" style="stroke:#181818;stroke-width:1.0;"/><line style="stroke:#181818;stroke-width:1.0;" x1="2548.5" x2="2548.5" y1="637.7813" y2="655.7813"/><line style="stroke:#181818;stroke-width:1.0;" x1="2548.5" x2="2656.5" y1="655.7813" y2="655.7813"/><polygon fill="#181818" points="2646.5,651.7813,2656.5,655.7813,2646.5,659.7813,2650.5,655.7813" style="stroke:#181818;stroke-width:1.0;"/><line style="stroke:#181818;stroke-width:1.0;" x1="2788.5" x2="2788.5" y1="568.8125" y2="655.7813"/><line style="stroke:#181818;stroke-width:1.0;" x1="2788.5" x2="2680.5" y1="655.7813" y2="655.7813"/><polygon fill="#181818" points="2690.5,651.7813,2680.5,655.7813,2690.5,659.7813,2686.5,655.7813" style="stroke:#181818;stroke-width:1.0;"/><line style="stroke:#181818;stroke-width:1.0;" x1="2668.5" x2="2668.5" y1="396.875" y2="431.875"/><polygon fill="#181818" points="2664.5,421.875,2668.5,431.875,2672.5,421.875,2668.5,425.875" style="stroke:#181818;stroke-width:1.0;"/><line style="stroke:#181818;stroke-width:1.0;" x1="2224.75" x2="1990" y1="340.9063" y2="340.9063"/><line style="stroke:#181818;stroke-width:1.0;" x1="1990" x2="1990" y1="340.9063" y2="362.9063"/><polygon fill="#181818" points="1986,352.9063,1990,362.9063,1994,352.9063,1990,356.9063" style="stroke:#181818;stroke-width:1.0;"/><line style="stroke:#181818;stroke-width:1.0;" x1="2433.75" x2="2668.5" y1="340.9063" y2="340.9063"/><line style="stroke:#181818;stroke-width:1.0;" x1="2668.5" x2="2668.5" y1="340.9063" y2="362.9063"/><polygon fill="#181818" points="2664.5,352.9063,2668.5,362.9063,2672.5,352.9063,2668.5,356.9063" style="stroke:#181818;stroke-width:1.0;"/><line style="stroke:#181818;stroke-width:1.0;" x1="1990" x2="1990" y1="800.75" y2="818.75"/><line style="stroke:#181818;stroke-width:1.0;" x1="1990" x2="2317.25" y1="818.75" y2="818.75"/><polygon fill="#181818" points="2307.25,814.75,2317.25,818.75,2307.25,822.75,2311.25,818.75" style="stroke:#181818;stroke-width:1.0;"/><line style="stroke:#181818;stroke-width:1.0;" x1="2668.5" x2="2668.5" y1="667.7813" y2="818.75"/><line style="stroke:#181818;stroke-width:1.0;" x1="2668.5" x2="2341.25" y1="818.75" y2="818.75"/><polygon fill="#181818" points="2351.25,814.75,2341.25,818.75,2351.25,822.75,2347.25,818.75" style="stroke:#181818;stroke-width:1.0;"/><line style="stroke:#181818;stroke-width:1.0;" x1="1813.375" x2="1591.5" y1="306.9063" y2="306.9063"/><line style="stroke:#181818;stroke-width:1.0;" x1="1591.5" x2="1591.5" y1="306.9063" y2="328.9063"/><polygon fill="#181818" points="1587.5,318.9063,1591.5,328.9063,1595.5,318.9063,1591.5,322.9063" style="stroke:#181818;stroke-width:1.0;"/><line style="stroke:#181818;stroke-width:1.0;" x1="2077.375" x2="2329.25" y1="306.9063" y2="306.9063"/><line style="stroke:#181818;stroke-width:1.0;" x1="2329.25" x2="2329.25" y1="306.9063" y2="328.9063"/><polygon fill="#181818" points="2325.25,318.9063,2329.25,328.9063,2333.25,318.9063,2329.25,322.9063" style="stroke:#181818;stroke-width:1.0;"/><line style="stroke:#181818;stroke-width:1.0;" x1="1591.5" x2="1591.5" y1="500.8125" y2="848.75"/><line style="stroke:#181818;stroke-width:1.0;" x1="1591.5" x2="1933.375" y1="848.75" y2="848.75"/><polygon fill="#181818" points="1923.375,844.75,1933.375,848.75,1923.375,852.75,1927.375,848.75" style="stroke:#181818;stroke-width:1.0;"/><line style="stroke:#181818;stroke-width:1.0;" x1="2329.25" x2="2329.25" y1="830.75" y2="848.75"/><line style="stroke:#181818;stroke-width:1.0;" x1="2329.25" x2="1957.375" y1="848.75" y2="848.75"/><polygon fill="#181818" points="1967.375,844.75,1957.375,848.75,1967.375,852.75,1963.375,848.75" style="stroke:#181818;stroke-width:1.0;"/><line style="stroke:#181818;stroke-width:1.0;" x1="1945.375" x2="1945.375" y1="259.9063" y2="294.9063"/><polygon fill="#181818" points="1941.375,284.9063,1945.375,294.9063,1949.375,284.9063,1945.375,288.9063" style="stroke:#181818;stroke-width:1.0;"/><line style="stroke:#181818;stroke-width:1.0;" x1="3007.5" x2="3007.5" y1="259.9063" y2="294.9063"/><polygon fill="#181818" points="3003.5,284.9063,3007.5,294.9063,3011.5,284.9063,3007.5,288.9063" style="stroke:#181818;stroke-width:1.0;"/><line style="stroke:#181818;stroke-width:1.0;" x1="2437.4375" x2="1945.375" y1="203.9375" y2="203.9375"/><line style="stroke:#181818;stroke-width:1.0;" x1="1945.375" x2="1945.375" y1="203.9375" y2="225.9375"/><polygon fill="#181818" points="1941.375,215.9375,1945.375,225.9375,1949.375,215.9375,1945.375,219.9375" style="stroke:#181818;stroke-width:1.0;"/><line style="stroke:#181818;stroke-width:1.0;" x1="2555.4375" x2="3007.5" y1="203.9375" y2="203.9375"/><line style="stroke:#181818;stroke-width:1.0;" x1="3007.5" x2="3007.5" y1="203.9375" y2="225.9375"/><polygon fill="#181818" points="3003.5,215.9375,3007.5,225.9375,3011.5,215.9375,3007.5,219.9375" style="stroke:#181818;stroke-width:1.0;"/><line style="stroke:#181818;stroke-width:1.0;" x1="1945.375" x2="1945.375" y1="860.75" y2="878.75"/><line style="stroke:#181818;stroke-width:1.0;" x1="1945.375" x2="2484.4375" y1="878.75" y2="878.75"/><polygon fill="#181818" points="2474.4375,874.75,2484.4375,878.75,2474.4375,882.75,2478.4375,878.75" style="stroke:#181818;stroke-width:1.0;"/><line style="stroke:#181818;stroke-width:1.0;" x1="3007.5" x2="3007.5" y1="328.875" y2="878.75"/><line style="stroke:#181818;stroke-width:1.0;" x1="3007.5" x2="2508.4375" y1="878.75" y2="878.75"/><polygon fill="#181818" points="2518.4375,874.75,2508.4375,878.75,2518.4375,882.75,2514.4375,878.75" style="stroke:#181818;stroke-width:1.0;"/><line style="stroke:#181818;stroke-width:1.0;" x1="2496.4375" x2="2496.4375" y1="171.9375" y2="191.9375"/><polygon fill="#181818" points="2492.4375,181.9375,2496.4375,191.9375,2500.4375,181.9375,2496.4375,185.9375" style="stroke:#181818;stroke-width:1.0;"/><line style="stroke:#181818;stroke-width:1.0;" x1="1438.9063" x2="469.375" y1="115.9688" y2="115.9688"/><line style="stroke:#181818;stroke-width:1.0;" x1="469.375" x2="469.375" y1="115.9688" y2="137.9688"/><polygon fill="#181818" points="465.375,127.9688,469.375,137.9688,473.375,127.9688,469.375,131.9688" style="stroke:#181818;stroke-width:1.0;"/><line style="stroke:#181818;stroke-width:1.0;" x1="1556.9063" x2="2496.4375" y1="115.9688" y2="115.9688"/><line style="stroke:#181818;stroke-width:1.0;" x1="2496.4375" x2="2496.4375" y1="115.9688" y2="137.9688"/><polygon fill="#181818" points="2492.4375,127.9688,2496.4375,137.9688,2500.4375,127.9688,2496.4375,131.9688" style="stroke:#181818;stroke-width:1.0;"/><line style="stroke:#181818;stroke-width:1.0;" x1="469.375" x2="469.375" y1="757.7813" y2="908.75"/><line style="stroke:#181818;stroke-width:1.0;" x1="469.375" x2="1485.9063" y1="908.75" y2="908.75"/><polygon fill="#181818" points="1475.9063,904.75,1485.9063,908.75,1475.9063,912.75,1479.9063,908.75" style="stroke:#181818;stroke-width:1.0;"/><line style="stroke:#181818;stroke-width:1.0;" x1="2496.4375" x2="2496.4375" y1="890.75" y2="908.75"/><line style="stroke:#181818;stroke-width:1.0;" x1="2496.4375" x2="1509.9063" y1="908.75" y2="908.75"/><polygon fill="#181818" points="1519.9063,904.75,1509.9063,908.75,1519.9063,912.75,1515.9063,908.75" style="stroke:#181818;stroke-width:1.0;"/><line style="stroke:#181818;stroke-width:1.0;" x1="1497.9063" x2="1497.9063" y1="83.9688" y2="103.9688"/><polygon fill="#181818" points="1493.9063,93.9688,1497.9063,103.9688,1501.9063,93.9688,1497.9063,97.9688" style="stroke:#181818;stroke-width:1.0;"/><line style="stroke:#181818;stroke-width:1.0;" x1="1497.9063" x2="1497.9063" y1="920.75" y2="940.75"/><polygon fill="#181818" points="1493.9063,930.75,1497.9063,940.75,1501.9063,930.75,1497.9063,934.75" style="stroke:#181818;stroke-width:1.0;"/><!--SRC=[xLPHRe904Ftd5FjPhr0_UfOcrTIaiKtb02XfRAE9FtwPz0v8fH11UeMP6tLc1LrWMsN59crg0gpBpipZlM4V0_lwqROkOO4kEZY501q17-X014kSW0yUJOq4h0KaD1hY25q1AqXvI3TzM4FKjgnULrp00cAA2s334JvEy9d-n5SjOTzs-dH_3bwhKeilj6oLLmffiAOZfABxVEZgYg3BK0X4pB5qJMMkZS2XWZ25H4aBNXMGYZibI35uEAOflmAghUTgGqUIByupID2bvQ54H4FY9bjU89D3EdU33e5xvTijpKC_KS0uAqLn2Sz3HEMc2j03h5TGCt5IBvuC-26MQlgWm21f8SGMM57B55PI1zRqVQ_fBW-w9Lo2VYLiB5X8xUCGXIyQ0JGXnx0gH97NQXhgfYM1L70h3GZUZZMSbRZUOfAdgbhKYV0c-s4eM_FBB1fc9C8wpRaBgjEYsg3ZADMHQYIeUVt-JQzhvTSocWO5jfeMrq1Q0s7FygQSyHtToYZFbaxJKjQKr8psUj96HH1uks4dI7dRygKb93ZxtIvbq2-rk-LahzAz8YPkTLIlrtIiqXRTW6_zy4PtSACzqRyoUfhtC4CNC_GnOuBr51kAV0gApD4KR_l_SFdp7owPuttdTOVWc6pVQl61VV_m2G00]--></g></svg>