<svg xmlns="http://www.w3.org/2000/svg" xmlns:xlink="http://www.w3.org/1999/xlink" contentStyleType="text/css" height="621px" preserveAspectRatio="none" style="width:1094px;height:621px;background:#FFFFFF;" version="1.1" viewBox="0 0 1094 621" width="1094px" zoomAndPan="magnify"><defs/><g><!--class Person--><g id="elem_Person"><rect codeLine="3" fill="#F1F1F1" height="113.1875" id="Person" rx="2.5" ry="2.5" style="stroke:#181818;stroke-width:0.5;" width="146" x="175" y="31.44"/><ellipse cx="219.25" cy="47.44" fill="#A9DCDF" rx="11" ry="11" style="stroke:#181818;stroke-width:1.0;"/><path d="M219.3594,42.7837 L218.2031,47.8619 L220.5313,47.8619 L219.3594,42.7837 Z M217.875,40.5494 L220.8594,40.5494 L224.2188,52.94 L221.7656,52.94 L221,49.8775 L217.7188,49.8775 L216.9688,52.94 L214.5313,52.94 L217.875,40.5494 Z " fill="#000000"/><text fill="#000000" font-family="sans-serif" font-size="14" font-style="italic" lengthAdjust="spacing" textLength="49" x="239.75" y="52.2867">Person</text><line style="stroke:#181818;stroke-width:0.5;" x1="176" x2="320" y1="63.44" y2="63.44"/><text fill="#000000" font-family="sans-serif" font-size="14" lengthAdjust="spacing" textLength="100" x="181" y="80.4351">#name: String</text><text fill="#000000" font-family="sans-serif" font-size="14" lengthAdjust="spacing" textLength="50" x="181" y="96.732">#id: int</text><line style="stroke:#181818;stroke-width:0.5;" x1="176" x2="320" y1="104.0337" y2="104.0337"/><text fill="#000000" font-family="sans-serif" font-size="14" lengthAdjust="spacing" textLength="134" x="181" y="121.0289">+getName(): String</text><text fill="#000000" font-family="sans-serif" font-size="14" lengthAdjust="spacing" textLength="83" x="181" y="137.3257">+getId(): int</text></g><!--class Librarian--><g id="elem_Librarian"><rect codeLine="10" fill="#F1F1F1" height="96.8906" id="Librarian" rx="2.5" ry="2.5" style="stroke:#181818;stroke-width:0.5;" width="386" x="302" y="270.52"/><ellipse cx="462.25" cy="286.52" fill="#ADD1B2" rx="11" ry="11" style="stroke:#181818;stroke-width:1.0;"/><path d="M465.2188,292.1606 Q464.6406,292.4575 464,292.5981 Q463.3594,292.7544 462.6563,292.7544 Q460.1563,292.7544 458.8281,291.1138 Q457.5156,289.4575 457.5156,286.3325 Q457.5156,283.2075 458.8281,281.5513 Q460.1563,279.895 462.6563,279.895 Q463.3594,279.895 464,280.0513 Q464.6563,280.2075 465.2188,280.5044 L465.2188,283.2231 Q464.5938,282.645 464,282.3794 Q463.4063,282.0981 462.7813,282.0981 Q461.4375,282.0981 460.75,283.1763 Q460.0625,284.2388 460.0625,286.3325 Q460.0625,288.4263 460.75,289.5044 Q461.4375,290.5669 462.7813,290.5669 Q463.4063,290.5669 464,290.3013 Q464.5938,290.02 465.2188,289.4419 L465.2188,292.1606 Z " fill="#000000"/><text fill="#000000" font-family="sans-serif" font-size="14" lengthAdjust="spacing" textLength="57" x="482.75" y="291.3667">Librarian</text><line style="stroke:#181818;stroke-width:0.5;" x1="303" x2="687" y1="302.52" y2="302.52"/><text fill="#000000" font-family="sans-serif" font-size="14" lengthAdjust="spacing" textLength="111" x="308" y="319.5151">-employeeId: int</text><line style="stroke:#181818;stroke-width:0.5;" x1="303" x2="687" y1="326.8169" y2="326.8169"/><text fill="#000000" font-family="sans-serif" font-size="14" lengthAdjust="spacing" textLength="374" x="308" y="343.812">+checkOutBook(book: Book, member: Member): void</text><text fill="#000000" font-family="sans-serif" font-size="14" lengthAdjust="spacing" textLength="217" x="308" y="360.1089">+returnBook(book: Book): void</text></g><!--class Member--><g id="elem_Member"><rect codeLine="16" fill="#F1F1F1" height="129.4844" id="Member" rx="2.5" ry="2.5" style="stroke:#181818;stroke-width:0.5;" width="260" x="7" y="254.23"/><ellipse cx="104.25" cy="270.23" fill="#ADD1B2" rx="11" ry="11" style="stroke:#181818;stroke-width:1.0;"/><path d="M107.2188,275.8706 Q106.6406,276.1675 106,276.3081 Q105.3594,276.4644 104.6563,276.4644 Q102.1563,276.4644 100.8281,274.8237 Q99.5156,273.1675 99.5156,270.0425 Q99.5156,266.9175 100.8281,265.2612 Q102.1563,263.605 104.6563,263.605 Q105.3594,263.605 106,263.7612 Q106.6563,263.9175 107.2188,264.2144 L107.2188,266.9331 Q106.5938,266.355 106,266.0894 Q105.4063,265.8081 104.7813,265.8081 Q103.4375,265.8081 102.75,266.8862 Q102.0625,267.9487 102.0625,270.0425 Q102.0625,272.1362 102.75,273.2144 Q103.4375,274.2769 104.7813,274.2769 Q105.4063,274.2769 106,274.0112 Q106.5938,273.73 107.2188,273.1519 L107.2188,275.8706 Z " fill="#000000"/><text fill="#000000" font-family="sans-serif" font-size="14" lengthAdjust="spacing" textLength="57" x="124.75" y="275.0767">Member</text><line style="stroke:#181818;stroke-width:0.5;" x1="8" x2="266" y1="286.23" y2="286.23"/><text fill="#000000" font-family="sans-serif" font-size="14" lengthAdjust="spacing" textLength="130" x="13" y="303.2251">-membershipId: int</text><text fill="#000000" font-family="sans-serif" font-size="14" lengthAdjust="spacing" textLength="207" x="13" y="319.522">-borrowedBooks: List&lt;Book&gt;</text><line style="stroke:#181818;stroke-width:0.5;" x1="8" x2="266" y1="326.8237" y2="326.8237"/><text fill="#000000" font-family="sans-serif" font-size="14" lengthAdjust="spacing" textLength="223" x="13" y="343.8189">+borrowBook(book: Book): void</text><text fill="#000000" font-family="sans-serif" font-size="14" lengthAdjust="spacing" textLength="217" x="13" y="360.1157">+returnBook(book: Book): void</text><text fill="#000000" font-family="sans-serif" font-size="14" lengthAdjust="spacing" textLength="248" x="13" y="376.4126">+getBorrowedBooks(): List&lt;Book&gt;</text></g><!--class Book--><g id="elem_Book"><rect codeLine="24" fill="#F1F1F1" height="145.7813" id="Book" rx="2.5" ry="2.5" style="stroke:#181818;stroke-width:0.5;" width="260" x="827" y="468.86"/><ellipse cx="934.75" cy="484.86" fill="#ADD1B2" rx="11" ry="11" style="stroke:#181818;stroke-width:1.0;"/><path d="M937.7188,490.5006 Q937.1406,490.7975 936.5,490.9381 Q935.8594,491.0944 935.1563,491.0944 Q932.6563,491.0944 931.3281,489.4538 Q930.0156,487.7975 930.0156,484.6725 Q930.0156,481.5475 931.3281,479.8913 Q932.6563,478.235 935.1563,478.235 Q935.8594,478.235 936.5,478.3913 Q937.1563,478.5475 937.7188,478.8444 L937.7188,481.5631 Q937.0938,480.985 936.5,480.7194 Q935.9063,480.4381 935.2813,480.4381 Q933.9375,480.4381 933.25,481.5163 Q932.5625,482.5788 932.5625,484.6725 Q932.5625,486.7663 933.25,487.8444 Q933.9375,488.9069 935.2813,488.9069 Q935.9063,488.9069 936.5,488.6413 Q937.0938,488.36 937.7188,487.7819 L937.7188,490.5006 Z " fill="#000000"/><text fill="#000000" font-family="sans-serif" font-size="14" lengthAdjust="spacing" textLength="36" x="955.25" y="489.7067">Book</text><line style="stroke:#181818;stroke-width:0.5;" x1="828" x2="1086" y1="500.86" y2="500.86"/><text fill="#000000" font-family="sans-serif" font-size="14" lengthAdjust="spacing" textLength="79" x="833" y="517.8551">-title: String</text><text fill="#000000" font-family="sans-serif" font-size="14" lengthAdjust="spacing" textLength="99" x="833" y="534.152">-author: String</text><text fill="#000000" font-family="sans-serif" font-size="14" lengthAdjust="spacing" textLength="83" x="833" y="550.4489">-isbn: String</text><text fill="#000000" font-family="sans-serif" font-size="14" lengthAdjust="spacing" textLength="128" x="833" y="566.7457">-available: boolean</text><line style="stroke:#181818;stroke-width:0.5;" x1="828" x2="1086" y1="574.0475" y2="574.0475"/><text fill="#000000" font-family="sans-serif" font-size="14" lengthAdjust="spacing" textLength="157" x="833" y="591.0426">+isAvailable(): boolean</text><text fill="#000000" font-family="sans-serif" font-size="14" lengthAdjust="spacing" textLength="248" x="833" y="607.3395">+setAvailable(status: boolean): void</text></g><!--class Library--><g id="elem_Library"><rect codeLine="33" fill="#F1F1F1" height="162.0781" id="Library" rx="2.5" ry="2.5" style="stroke:#181818;stroke-width:0.5;" width="264" x="488" y="7"/><ellipse cx="593.75" cy="23" fill="#ADD1B2" rx="11" ry="11" style="stroke:#181818;stroke-width:1.0;"/><path d="M596.7188,28.6406 Q596.1406,28.9375 595.5,29.0781 Q594.8594,29.2344 594.1563,29.2344 Q591.6563,29.2344 590.3281,27.5938 Q589.0156,25.9375 589.0156,22.8125 Q589.0156,19.6875 590.3281,18.0313 Q591.6563,16.375 594.1563,16.375 Q594.8594,16.375 595.5,16.5313 Q596.1563,16.6875 596.7188,16.9844 L596.7188,19.7031 Q596.0938,19.125 595.5,18.8594 Q594.9063,18.5781 594.2813,18.5781 Q592.9375,18.5781 592.25,19.6563 Q591.5625,20.7188 591.5625,22.8125 Q591.5625,24.9063 592.25,25.9844 Q592.9375,27.0469 594.2813,27.0469 Q594.9063,27.0469 595.5,26.7813 Q596.0938,26.5 596.7188,25.9219 L596.7188,28.6406 Z " fill="#000000"/><text fill="#000000" font-family="sans-serif" font-size="14" lengthAdjust="spacing" textLength="44" x="614.25" y="27.8467">Library</text><line style="stroke:#181818;stroke-width:0.5;" x1="489" x2="751" y1="39" y2="39"/><text fill="#000000" font-family="sans-serif" font-size="14" lengthAdjust="spacing" textLength="93" x="494" y="55.9951">-name: String</text><text fill="#000000" font-family="sans-serif" font-size="14" lengthAdjust="spacing" textLength="140" x="494" y="72.292">-books: List&lt;Book&gt;</text><text fill="#000000" font-family="sans-serif" font-size="14" lengthAdjust="spacing" textLength="184" x="494" y="88.5889">-members: List&lt;Member&gt;</text><text fill="#000000" font-family="sans-serif" font-size="14" lengthAdjust="spacing" textLength="179" x="494" y="104.8857">-librarians: List&lt;Librarian&gt;</text><line style="stroke:#181818;stroke-width:0.5;" x1="489" x2="751" y1="112.1875" y2="112.1875"/><text fill="#000000" font-family="sans-serif" font-size="14" lengthAdjust="spacing" textLength="201" x="494" y="129.1826">+addBook(book: Book): void</text><text fill="#000000" font-family="sans-serif" font-size="14" lengthAdjust="spacing" textLength="227" x="494" y="145.4795">+removeBook(book: Book): void</text><text fill="#000000" font-family="sans-serif" font-size="14" lengthAdjust="spacing" textLength="252" x="494" y="161.7764">+findBookByIsbn(isbn: String): Book</text></g><!--class Shelf--><g id="elem_Shelf"><rect codeLine="43" fill="#F1F1F1" height="145.7813" id="Shelf" rx="2.5" ry="2.5" style="stroke:#181818;stroke-width:0.5;" width="267" x="722.5" y="246.08"/><ellipse cx="834.75" cy="262.08" fill="#ADD1B2" rx="11" ry="11" style="stroke:#181818;stroke-width:1.0;"/><path d="M837.7188,267.7206 Q837.1406,268.0175 836.5,268.1581 Q835.8594,268.3144 835.1563,268.3144 Q832.6563,268.3144 831.3281,266.6738 Q830.0156,265.0175 830.0156,261.8925 Q830.0156,258.7675 831.3281,257.1113 Q832.6563,255.455 835.1563,255.455 Q835.8594,255.455 836.5,255.6112 Q837.1563,255.7675 837.7188,256.0644 L837.7188,258.7831 Q837.0938,258.205 836.5,257.9394 Q835.9063,257.6581 835.2813,257.6581 Q833.9375,257.6581 833.25,258.7363 Q832.5625,259.7988 832.5625,261.8925 Q832.5625,263.9863 833.25,265.0644 Q833.9375,266.1269 835.2813,266.1269 Q835.9063,266.1269 836.5,265.8613 Q837.0938,265.58 837.7188,265.0019 L837.7188,267.7206 Z " fill="#000000"/><text fill="#000000" font-family="sans-serif" font-size="14" lengthAdjust="spacing" textLength="34" x="855.25" y="266.9267">Shelf</text><line style="stroke:#181818;stroke-width:0.5;" x1="723.5" x2="988.5" y1="278.08" y2="278.08"/><text fill="#000000" font-family="sans-serif" font-size="14" lengthAdjust="spacing" textLength="119" x="728.5" y="295.0751">-shelfNumber: int</text><text fill="#000000" font-family="sans-serif" font-size="14" lengthAdjust="spacing" textLength="87" x="728.5" y="311.372">-capacity: int</text><text fill="#000000" font-family="sans-serif" font-size="14" lengthAdjust="spacing" textLength="140" x="728.5" y="327.6689">-books: List&lt;Book&gt;</text><line style="stroke:#181818;stroke-width:0.5;" x1="723.5" x2="988.5" y1="334.9706" y2="334.9706"/><text fill="#000000" font-family="sans-serif" font-size="14" lengthAdjust="spacing" textLength="229" x="728.5" y="351.9657">+addBook(book: Book): boolean</text><text fill="#000000" font-family="sans-serif" font-size="14" lengthAdjust="spacing" textLength="255" x="728.5" y="368.2626">+removeBook(book: Book): boolean</text><text fill="#000000" font-family="sans-serif" font-size="14" lengthAdjust="spacing" textLength="121" x="728.5" y="384.5595">+isFull(): boolean</text></g><!--reverse link Person to Librarian--><g id="link_Person_Librarian"><path codeLine="52" d="M321.6216,157.2759 C363.0416,195.6659 404.2,233.81 443.55,270.28 " fill="none" id="Person-backto-Librarian" style="stroke:#181818;stroke-width:1.0;"/><polygon fill="none" points="308.42,145.04,317.543,161.6764,325.7003,152.8753,308.42,145.04" style="stroke:#181818;stroke-width:1.0;"/></g><!--reverse link Person to Member--><g id="link_Person_Member"><path codeLine="53" d="M212.9933,161.2348 C197.0033,194.1948 184.6,219.8 167.99,254.05 " fill="none" id="Person-backto-Member" style="stroke:#181818;stroke-width:1.0;"/><polygon fill="none" points="220.85,145.04,207.5951,158.616,218.3916,163.8537,220.85,145.04" style="stroke:#181818;stroke-width:1.0;"/></g><!--reverse link Library to Book--><g id="link_Library_Book"><path codeLine="54" d="M764.1428,107.3033 C852.4128,125.5033 950.5,162.18 1007,246.08 C1051.49,312.14 1024.65,404.93 996.03,468.63 " fill="none" id="Library-backto-Book" style="stroke:#181818;stroke-width:1.0;"/><polygon fill="#181818" points="752.39,104.88,757.4586,110.0092,764.1428,107.3033,759.0741,102.174,752.39,104.88" style="stroke:#181818;stroke-width:1.0;"/><text fill="#000000" font-family="sans-serif" font-size="13" lengthAdjust="spacing" textLength="54" x="1032" y="323.5369">contains</text><text fill="#000000" font-family="sans-serif" font-size="13" lengthAdjust="spacing" textLength="8" x="759.8488" y="102.4614">1</text><text fill="#000000" font-family="sans-serif" font-size="13" lengthAdjust="spacing" textLength="36" x="962.1001" y="457.7673">many</text></g><!--reverse link Library to Member--><g id="link_Library_Member"><path codeLine="55" d="M476.8676,155.5985 C415.1676,184.4185 351.67,214.26 285,246.08 C279.2,248.85 273.28,251.68 267.29,254.55 " fill="none" id="Library-backto-Member" style="stroke:#181818;stroke-width:1.0;"/><polygon fill="none" points="487.74,150.52,480.611,149.4351,476.8676,155.5985,483.9966,156.6834,487.74,150.52" style="stroke:#181818;stroke-width:1.0;"/><text fill="#000000" font-family="sans-serif" font-size="13" lengthAdjust="spacing" textLength="23" x="378" y="212.1469">has</text><text fill="#000000" font-family="sans-serif" font-size="13" lengthAdjust="spacing" textLength="8" x="471.8625" y="150.7693">1</text><text fill="#000000" font-family="sans-serif" font-size="13" lengthAdjust="spacing" textLength="36" x="244.2735" y="243.3086">many</text></g><!--reverse link Library to Librarian--><g id="link_Library_Librarian"><path codeLine="56" d="M570.3561,179.9606 C551.9861,213.5806 537.03,241 521.13,270.12 " fill="none" id="Library-backto-Librarian" style="stroke:#181818;stroke-width:1.0;"/><polygon fill="none" points="576.11,169.43,569.7229,172.7773,570.3561,179.9606,576.7432,176.6132,576.11,169.43" style="stroke:#181818;stroke-width:1.0;"/><text fill="#000000" font-family="sans-serif" font-size="13" lengthAdjust="spacing" textLength="54" x="559" y="212.1469">employs</text><text fill="#000000" font-family="sans-serif" font-size="13" lengthAdjust="spacing" textLength="8" x="563.9945" y="189.1417">1</text><text fill="#000000" font-family="sans-serif" font-size="13" lengthAdjust="spacing" textLength="36" x="486.2225" y="259.6244">many</text></g><!--reverse link Shelf to Book--><g id="link_Shelf_Book"><path codeLine="57" d="M894.0631,403.1719 C905.2831,427.6919 912.82,444.17 924.03,468.67 " fill="none" id="Shelf-backto-Book" style="stroke:#181818;stroke-width:1.0;"/><polygon fill="#181818" points="889.07,392.26,887.9293,399.3803,894.0631,403.1719,895.2038,396.0516,889.07,392.26" style="stroke:#181818;stroke-width:1.0;"/><text fill="#000000" font-family="sans-serif" font-size="13" lengthAdjust="spacing" textLength="34" x="911" y="434.9269">holds</text><text fill="#000000" font-family="sans-serif" font-size="13" lengthAdjust="spacing" textLength="8" x="883.8407" y="412.0335">1</text><text fill="#000000" font-family="sans-serif" font-size="13" lengthAdjust="spacing" textLength="36" x="883.0126" y="457.8113">many</text></g><!--reverse link Library to Shelf--><g id="link_Library_Shelf"><path codeLine="58" d="M711.4853,177.7832 C737.1253,202.6432 756.57,221.52 781.6,245.79 " fill="none" id="Library-backto-Shelf" style="stroke:#181818;stroke-width:1.0;"/><polygon fill="#181818" points="702.87,169.43,704.3932,176.4784,711.4853,177.7832,709.9621,170.7348,702.87,169.43" style="stroke:#181818;stroke-width:1.0;"/><text fill="#000000" font-family="sans-serif" font-size="13" lengthAdjust="spacing" textLength="23" x="747" y="212.1469">has</text><text fill="#000000" font-family="sans-serif" font-size="13" lengthAdjust="spacing" textLength="8" x="701.6479" y="189.1417">1</text><text fill="#000000" font-family="sans-serif" font-size="13" lengthAdjust="spacing" textLength="36" x="736.5044" y="234.9214">many</text></g><!--SRC=[XLDDRwCm4BtpAqRf9TqjKlUAgfMQmqgHscwb_881fiMAiIDxo8f-_FUriG7J9kq5pCoRUO_d6RiNwe06MwWaMdlBR4JPCMqhhNRYXU0wox2qRB3Y0857CbOhUCq0Ba1XImNiN9Lw7WAYBa0eTkUVy4pyuFBhomGnHBUrZtdOUvQ5hdUYD6W4XiOvK7kGkYVQ9lsgXghztuutMk_NfNiKu8zNq59RaYdWVdYxraSjwg7447T6VIWO0HDvg8lCePbjn67cpg7KnkX_LFjwMpYvbc_y-VT04x9dQBxL4LtPf1JUe8Haake_er0MB5FpSy2E6sqM8M5BjSGSKKWiVQLJ8WdLm2_ixPZmr6dA4iyvoyYTdG2Vh0pts4U97yR3s_ZPlido60-t4J9o78inESr9C1xh-alNMtsaBm1FGWtrctxhV5gdPbq6zFndkuRaK_mlwyyFNPYwSKGgF60bk4-7vjImdDIS6dvEzlA-_dHIfbVbXCRLl7dBytcX5j7WRJRUqkhN2dwuyAf5rQ_2S1NWTfzHABk0wHaMrwM01izYvdqkuYxRB3XuchFHihRdT8N2WUy_]--></g></svg>