<svg xmlns="http://www.w3.org/2000/svg" xmlns:xlink="http://www.w3.org/1999/xlink" contentStyleType="text/css" height="592px" preserveAspectRatio="none" style="width:922px;height:592px;background:#FFFFFF;" version="1.1" viewBox="0 0 922 592" width="922px" zoomAndPan="magnify"><defs/><g><ellipse cx="427.3" cy="16" fill="#222222" rx="10" ry="10" style="stroke:#222222;stroke-width:1.0;"/><path d="M260.41,103 L594.2,103 A12.5,12.5 0 0 1 606.7,115.5 L606.7,129.2969 L247.91,129.2969 L247.91,115.5 A12.5,12.5 0 0 1 260.41,103 " fill="#F1F1F1" style="stroke:#F1F1F1;stroke-width:1.0;"/><rect fill="none" height="257.2969" rx="12.5" ry="12.5" style="stroke:#181818;stroke-width:0.5;" width="358.79" x="247.91" y="103"/><line style="stroke:#181818;stroke-width:0.5;" x1="247.91" x2="606.7" y1="129.2969" y2="129.2969"/><text fill="#000000" font-family="sans-serif" font-size="14" lengthAdjust="spacing" textLength="59" x="397.805" y="120.9951">Available</text><ellipse cx="366.7" cy="150.2969" fill="#222222" rx="10" ry="10" style="stroke:#222222;stroke-width:1.0;"/><g id="Available.OnShelf"><rect fill="#F1F1F1" height="50" rx="12.5" ry="12.5" style="stroke:#181818;stroke-width:0.5;" width="74" x="329.7" y="197.2969"/><line style="stroke:#181818;stroke-width:0.5;" x1="329.7" x2="403.7" y1="223.5937" y2="223.5937"/><text fill="#000000" font-family="sans-serif" font-size="14" lengthAdjust="spacing" textLength="54" x="339.7" y="215.292">OnShelf</text></g><g id="Available.InProcessing"><rect fill="#F1F1F1" height="50" rx="12.5" ry="12.5" style="stroke:#181818;stroke-width:0.5;" width="109" x="312.2" y="300.2969"/><line style="stroke:#181818;stroke-width:0.5;" x1="312.2" x2="421.2" y1="326.5937" y2="326.5937"/><text fill="#000000" font-family="sans-serif" font-size="14" lengthAdjust="spacing" textLength="89" x="322.2" y="318.292">InProcessing</text></g><!--link *start*Available to OnShelf--><g id="link_*start*Available_OnShelf"><path d="M366.7,160.7369 C366.7,169.9969 366.7,178.4869 366.7,190.9769 " fill="none" id="*start*Available-to-OnShelf" style="stroke:#181818;stroke-width:1.0;"/><polygon fill="#181818" points="366.7,196.9769,370.7,187.9769,366.7,191.9769,362.7,187.9769,366.7,196.9769" style="stroke:#181818;stroke-width:1.0;"/></g><!--link OnShelf to InProcessing--><g id="link_OnShelf_InProcessing"><path d="M329.51,229.7669 C309.02,235.4369 285.25,245.9469 272.7,265.2969 C258.91,286.5569 278.4164,299.585 306.1764,309.135 " fill="none" id="OnShelf-to-InProcessing" style="stroke:#181818;stroke-width:1.0;"/><polygon fill="#181818" points="311.85,311.0869,304.6408,304.3767,307.122,309.4603,302.0383,311.9415,311.85,311.0869" style="stroke:#181818;stroke-width:1.0;"/><text fill="#000000" font-family="sans-serif" font-size="13" lengthAdjust="spacing" textLength="165" x="273.7" y="278.3638">Принята для обработки</text></g><!--link InProcessing to OnShelf--><g id="link_InProcessing_OnShelf"><path d="M421.42,302.6669 C437.32,292.9369 448.35,280.2469 439.7,265.2969 C431.87,251.7569 423.2439,244.7832 409.5539,238.2432 " fill="none" id="InProcessing-to-OnShelf" style="stroke:#181818;stroke-width:1.0;"/><polygon fill="#181818" points="404.14,235.6569,410.5367,243.1457,408.6516,237.8122,413.9851,235.9271,404.14,235.6569" style="stroke:#181818;stroke-width:1.0;"/><text fill="#000000" font-family="sans-serif" font-size="13" lengthAdjust="spacing" textLength="153" x="443.7" y="278.3638">Обработка завершена</text></g><g id="Borrowed"><rect fill="#F1F1F1" height="50" rx="12.5" ry="12.5" style="stroke:#181818;stroke-width:0.5;" width="87" x="79.8" y="437.3"/><line style="stroke:#181818;stroke-width:0.5;" x1="79.8" x2="166.8" y1="463.5969" y2="463.5969"/><text fill="#000000" font-family="sans-serif" font-size="14" lengthAdjust="spacing" textLength="67" x="89.8" y="455.2951">Borrowed</text></g><g id="UnderMaintenance"><rect fill="#F1F1F1" height="50" rx="12.5" ry="12.5" style="stroke:#181818;stroke-width:0.5;" width="151" x="446.8" y="437.3"/><line style="stroke:#181818;stroke-width:0.5;" x1="446.8" x2="597.8" y1="463.5969" y2="463.5969"/><text fill="#000000" font-family="sans-serif" font-size="14" lengthAdjust="spacing" textLength="131" x="456.8" y="455.2951">UnderMaintenance</text></g><g id="Lost"><rect fill="#F1F1F1" height="50" rx="12.5" ry="12.5" style="stroke:#181818;stroke-width:0.5;" width="50" x="773.3" y="437.3"/><line style="stroke:#181818;stroke-width:0.5;" x1="773.3" x2="823.3" y1="463.5969" y2="463.5969"/><text fill="#000000" font-family="sans-serif" font-size="14" lengthAdjust="spacing" textLength="29" x="783.8" y="455.2951">Lost</text></g><ellipse cx="798.3" cy="575.3" fill="none" rx="11" ry="11" style="stroke:#222222;stroke-width:1.0;"/><ellipse cx="798.3" cy="575.3" fill="#222222" rx="6" ry="6" style="stroke:#222222;stroke-width:1.0;"/><!--link *start* to Available--><g id="link_*start*_Available"><path d="M427.3,26.46 C427.3,41 427.3,64.55 427.3,96.76 " fill="none" id="*start*-to-Available" style="stroke:#181818;stroke-width:1.0;"/><polygon fill="#181818" points="427.3,102.76,431.3,93.76,427.3,97.76,423.3,93.76,427.3,102.76" style="stroke:#181818;stroke-width:1.0;"/><text fill="#000000" font-family="sans-serif" font-size="13" lengthAdjust="spacing" textLength="162" x="428.3" y="69.0669">Добавлена новая книга</text></g><!--link Available to Borrowed--><g id="link_Available_Borrowed"><path d="M247.63,256.4 C165.14,277.29 74.65,316.54 24.3,390.3 C6,417.11 39.5685,435.3418 73.9185,447.2018 " fill="none" id="Available-to-Borrowed" style="stroke:#181818;stroke-width:1.0;"/><polygon fill="#181818" points="79.59,449.16,72.3883,442.4417,74.8638,447.5282,69.7773,450.0037,79.59,449.16" style="stroke:#181818;stroke-width:1.0;"/><text fill="#000000" font-family="sans-serif" font-size="13" lengthAdjust="spacing" textLength="150" x="25.3" y="403.3669">Взята пользователем</text></g><!--link Borrowed to Available--><g id="link_Borrowed_Available"><path d="M155.81,436.85 C181.08,417.84 213.4847,393.4663 252.2847,364.2863 " fill="none" id="Borrowed-to-Available" style="stroke:#181818;stroke-width:1.0;"/><polygon fill="#181818" points="257.08,360.68,247.4829,362.8927,253.084,363.6853,252.2913,369.2863,257.08,360.68" style="stroke:#181818;stroke-width:1.0;"/><text fill="#000000" font-family="sans-serif" font-size="13" lengthAdjust="spacing" textLength="166" x="214.3" y="403.3669">Вернута пользователем</text></g><!--link Available to UnderMaintenance--><g id="link_Available_UnderMaintenance"><path d="M409.03,360.48 C411.2,376.98 415.89,393.07 424.3,407.3 C431.61,419.68 437.7675,426.2696 450.1075,433.8496 " fill="none" id="Available-to-UnderMaintenance" style="stroke:#181818;stroke-width:1.0;"/><polygon fill="#181818" points="455.22,436.99,449.6449,428.871,450.9596,434.373,445.4576,435.6877,455.22,436.99" style="stroke:#181818;stroke-width:1.0;"/><text fill="#000000" font-family="sans-serif" font-size="13" lengthAdjust="spacing" textLength="149" x="425.3" y="403.3669">Отправлена в ремонт</text></g><!--link UnderMaintenance to Available--><g id="link_UnderMaintenance_Available"><path d="M559.85,437.05 C574.52,424.31 586.34,407.74 579.3,390.3 C575.17,380.08 573.1671,375.2545 567.2971,365.6845 " fill="none" id="UnderMaintenance-to-Available" style="stroke:#181818;stroke-width:1.0;"/><polygon fill="#181818" points="564.16,360.57,565.456,370.3332,566.7743,364.8321,572.2754,366.1504,564.16,360.57" style="stroke:#181818;stroke-width:1.0;"/><text fill="#000000" font-family="sans-serif" font-size="13" lengthAdjust="spacing" textLength="138" x="583.3" y="403.3669">Вернута из ремонта</text></g><!--link Available to Lost--><g id="link_Available_Lost"><path d="M607,313.8 C649.07,336.1 692.58,362.02 730.3,390.3 C748.33,403.82 761.9119,417.7345 774.6519,432.4445 " fill="none" id="Available-to-Lost" style="stroke:#181818;stroke-width:1.0;"/><polygon fill="#181818" points="778.58,436.98,775.7116,427.5581,775.3066,433.2005,769.6643,432.7955,778.58,436.98" style="stroke:#181818;stroke-width:1.0;"/><text fill="#000000" font-family="sans-serif" font-size="13" lengthAdjust="spacing" textLength="164" x="750.3" y="403.3669">Отмечена как утеряная</text></g><!--link Lost to *end*--><g id="link_Lost_*end*"><path d="M798.3,487.66 C798.3,511.53 798.3,540.76 798.3,558.01 " fill="none" id="Lost-to-*end*" style="stroke:#181818;stroke-width:1.0;"/><polygon fill="#181818" points="798.3,564.01,802.3,555.01,798.3,559.01,794.3,555.01,798.3,564.01" style="stroke:#181818;stroke-width:1.0;"/><text fill="#000000" font-family="sans-serif" font-size="13" lengthAdjust="spacing" textLength="57" x="799.3" y="530.3669">Удалена</text></g><!--SRC=[XP71IiD048Rl-nHx5le27WIz2Og2U2eUOhjg86mW2NeGeSI37eH0yLmFli1QBGb9qxx2x1lvpxRHf3tq4hB3_D__pqn_xqhsUWVoyDxp0-ywK79VqZijw8iCJQcY6TLa93uBF8tD99Lu5FHDHeWuyHBLqZuAAVjhufc-k5F13IhhFrSzrkTHE51nxEjRjlgm8y1gczcKRNweOWlOesuGOe5wIGKe7MNBW2cJZNwGSfT_PaVsTJM3U1BYFoa3Zi8e2X_Ka0bZofiCIzXNzWs4rSWfzBo7kVWJR6rip4uOutaNOYF2fHwgwDJpTQAqfmUEDK7xqetJslzKeW80WBLDnPPkLwA2yWw1hzUDSXB6IMC_X_YbiSOwgPGEnElCk6epuVfPo0U7xXF7CqtWNm00]--></g></svg>